<svg version="1.0" preserveAspectRatio="xMidYMid meet" height="1080" viewBox="0 0 810 809.999993" zoomAndPan="magnify" width="1080" xmlns:xlink="http://www.w3.org/1999/xlink" xmlns="http://www.w3.org/2000/svg"><rect fill-opacity="1" height="971.999992" y="-80.999999" fill="#ffffff" width="972" x="-81"></rect><rect fill-opacity="1" height="971.999992" y="-80.999999" fill="#ffffff" width="972" x="-81"></rect><path fill-rule="nonzero" fill-opacity="1" d="M 398.082031 475.773438 C 394.859375 466.558594 392.09375 457.34375 388.867188 448.125 C 385.863281 439.746094 381.980469 431.796875 377.222656 424.269531 C 372.464844 416.746094 366.945312 409.832031 360.667969 403.519531 C 357.917969 400.832031 354.96875 398.386719 351.816406 396.191406 C 348.664062 393.992188 345.347656 392.070312 341.875 390.425781 C 338.402344 388.777344 334.816406 387.429688 331.117188 386.378906 C 327.421875 385.328125 323.660156 384.59375 319.839844 384.167969 C 317.351562 384.027344 314.863281 384.027344 312.375 384.167969 C 310.625 390.617188 308.875 397.253906 306.9375 403.796875 C 305.042969 410.554688 302.765625 417.183594 300.109375 423.679688 C 297.453125 430.175781 294.433594 436.5 291.050781 442.652344 C 287.671875 448.800781 283.949219 454.738281 279.886719 460.460938 C 275.824219 466.183594 271.445312 471.65625 266.757812 476.878906 C 261.226562 483.054688 255.789062 489.320312 250.351562 495.3125 C 250 495.867188 249.570312 496.359375 249.0625 496.777344 C 248.554688 497.199219 247.996094 497.527344 247.382812 497.769531 C 246.769531 498.007812 246.132812 498.148438 245.472656 498.183594 C 244.816406 498.222656 244.167969 498.15625 243.53125 497.984375 C 242.878906 497.792969 242.277344 497.5 241.722656 497.105469 C 241.164062 496.714844 240.6875 496.242188 240.289062 495.695312 C 239.886719 495.144531 239.585938 494.542969 239.386719 493.894531 C 239.183594 493.246094 239.089844 492.582031 239.109375 491.902344 C 237.910156 474.113281 236.34375 456.328125 235.605469 438.542969 C 235.433594 435.417969 235.5625 432.304688 235.988281 429.207031 C 236.417969 426.105469 237.136719 423.078125 238.148438 420.117188 C 239.15625 417.15625 240.441406 414.316406 242 411.601562 C 243.554688 408.890625 245.355469 406.347656 247.402344 403.980469 C 250.730469 399.890625 254.410156 396.140625 258.4375 392.738281 C 262.464844 389.332031 266.769531 386.328125 271.359375 383.726562 C 275.945312 381.125 280.734375 378.972656 285.726562 377.261719 C 290.714844 375.554688 295.820312 374.324219 301.039062 373.570312 C 304.464844 373.058594 307.90625 372.777344 311.367188 372.71875 C 314.828125 372.660156 318.28125 372.824219 321.71875 373.21875 C 325.160156 373.609375 328.558594 374.226562 331.917969 375.0625 C 335.277344 375.902344 338.566406 376.953125 341.785156 378.222656 C 345.007812 379.492188 348.132812 380.964844 351.160156 382.640625 C 354.1875 384.320312 357.09375 386.1875 359.878906 388.242188 C 362.664062 390.300781 365.300781 392.53125 367.792969 394.933594 C 370.285156 397.335938 372.609375 399.890625 374.765625 402.597656 C 379.234375 408.132812 383.414062 413.878906 387.300781 419.832031 C 387.777344 420.75 388.480469 421.425781 389.421875 421.859375 C 388.40625 416.609375 387.667969 411.261719 386.378906 406.101562 C 382.785156 390.710938 379.097656 375.320312 375.136719 360.023438 C 374.488281 358.011719 373.289062 356.414062 371.542969 355.230469 C 359.746094 347.582031 348.226562 339.285156 335.785156 332.835938 C 324.417969 327.316406 312.679688 322.738281 300.578125 319.101562 C 281.441406 313.597656 261.933594 310.21875 242.058594 308.964844 C 241.03125 309.011719 240.046875 308.828125 239.109375 308.414062 C 237.542969 307.214844 235.515625 305.738281 235.144531 304.082031 C 235.058594 303.050781 235.207031 302.054688 235.597656 301.097656 C 235.988281 300.136719 236.574219 299.320312 237.359375 298.644531 C 244.539062 293.71875 252.160156 289.617188 260.222656 286.339844 C 268.289062 283.0625 276.609375 280.679688 285.1875 279.199219 C 288.710938 278.921875 292.234375 278.910156 295.757812 279.167969 C 299.28125 279.421875 302.765625 279.941406 306.210938 280.722656 C 309.652344 281.503906 313.019531 282.539062 316.308594 283.828125 C 319.597656 285.117188 322.773438 286.644531 325.832031 288.414062 C 340.417969 295.8125 353.75 305.03125 365.828125 316.0625 C 368.628906 318.890625 371.085938 321.996094 373.199219 325.367188 C 375.316406 328.742188 377.035156 332.304688 378.363281 336.058594 C 386.285156 355.972656 392.210938 376.464844 396.148438 397.53125 C 396.535156 399.554688 397.121094 401.519531 397.898438 403.429688 C 397.898438 389.328125 397.898438 375.78125 397.898438 361.21875 C 397.847656 359.792969 397.570312 358.410156 397.070312 357.074219 C 390.710938 334.863281 384.167969 312.835938 377.347656 290.71875 C 376.859375 289.203125 376.664062 287.648438 376.757812 286.058594 C 376.855469 284.46875 377.234375 282.949219 377.902344 281.503906 C 384.445312 266.847656 390.710938 252.101562 397.070312 237.359375 C 397.53125 236.34375 397.714844 235.054688 398.542969 234.5 C 399.375 233.949219 402.414062 231.550781 404.074219 231.921875 C 405.734375 232.289062 407.574219 234.59375 408.867188 236.34375 C 410.15625 238.09375 408.867188 238.925781 408.867188 240.214844 L 408.867188 351.636719 C 408.867188 374.765625 408.867188 397.714844 408.867188 421.03125 C 408.769531 422.285156 408.984375 423.484375 409.511719 424.625 C 411.261719 419.1875 412.921875 413.660156 414.765625 408.3125 C 418.039062 397.296875 422.261719 386.65625 427.433594 376.390625 C 432.605469 366.128906 438.640625 356.402344 445.546875 347.210938 C 450.648438 340.578125 456.121094 334.257812 461.957031 328.257812 C 467.796875 322.257812 473.960938 316.617188 480.457031 311.335938 C 486.949219 306.050781 493.726562 301.160156 500.789062 296.667969 C 507.851562 292.171875 515.148438 288.097656 522.683594 284.453125 L 525.355469 283.34375 C 525.902344 283.042969 526.488281 282.839844 527.105469 282.734375 C 527.71875 282.628906 528.335938 282.625 528.957031 282.726562 C 529.574219 282.828125 530.15625 283.023438 530.710938 283.320312 C 531.261719 283.617188 531.75 283.992188 532.175781 284.453125 C 532.722656 284.847656 533.1875 285.328125 533.570312 285.886719 C 533.953125 286.449219 534.226562 287.054688 534.394531 287.710938 C 534.5625 288.367188 534.617188 289.035156 534.550781 289.710938 C 534.484375 290.382812 534.308594 291.027344 534.019531 291.640625 C 530.292969 299.90625 525.773438 307.71875 520.46875 315.074219 C 515.160156 322.429688 509.171875 329.179688 502.5 335.324219 C 495.105469 342.1875 487.027344 348.117188 478.265625 353.113281 C 469.503906 358.109375 460.285156 362.039062 450.613281 364.90625 C 449.535156 365.167969 448.554688 365.636719 447.671875 366.308594 C 446.792969 366.984375 446.082031 367.804688 445.546875 368.777344 C 437.882812 382.523438 431.585938 396.871094 426.652344 411.816406 C 426.363281 412.492188 426.363281 413.167969 426.652344 413.84375 L 430.0625 409.234375 C 431.617188 406.980469 433.277344 404.808594 435.039062 402.714844 C 436.804688 400.621094 438.667969 398.617188 440.625 396.703125 C 442.582031 394.789062 444.628906 392.976562 446.761719 391.261719 C 448.894531 389.546875 451.109375 387.9375 453.398438 386.4375 C 455.6875 384.933594 458.042969 383.546875 460.464844 382.273438 C 462.890625 381 465.371094 379.847656 467.90625 378.8125 C 470.441406 377.78125 473.019531 376.871094 475.644531 376.089844 C 478.265625 375.304688 480.921875 374.648438 483.605469 374.121094 C 486.242188 373.578125 488.898438 373.175781 491.578125 372.914062 C 494.253906 372.65625 496.9375 372.535156 499.628906 372.558594 C 502.320312 372.578125 505 372.742188 507.671875 373.050781 C 510.347656 373.355469 512.996094 373.800781 515.621094 374.386719 C 518.246094 374.972656 520.835938 375.695312 523.382812 376.554688 C 525.933594 377.417969 528.429688 378.40625 530.875 379.53125 C 533.320312 380.65625 535.695312 381.90625 538.007812 383.28125 C 540.320312 384.65625 542.554688 386.148438 544.707031 387.761719 C 550.910156 392.148438 556.5625 397.15625 561.667969 402.785156 C 564.054688 405.410156 566.144531 408.25 567.945312 411.3125 C 569.742188 414.371094 571.210938 417.582031 572.34375 420.941406 C 573.476562 424.304688 574.253906 427.746094 574.675781 431.269531 C 575.097656 434.796875 575.152344 438.324219 574.84375 441.859375 C 573.832031 457.710938 572.726562 473.46875 571.621094 489.320312 C 571.621094 492.824219 571.621094 496.785156 567.472656 498.535156 C 563.324219 500.289062 561.019531 496.601562 558.257812 493.929688 C 546.53125 481.402344 535.71875 468.128906 525.816406 454.117188 C 519.730469 444.378906 514.488281 434.207031 510.097656 423.597656 C 505.703125 412.984375 502.21875 402.085938 499.644531 390.894531 L 497.890625 384.535156 C 493.023438 384.410156 488.203125 384.855469 483.4375 385.867188 C 478.671875 386.878906 474.089844 388.433594 469.691406 390.527344 C 465.996094 392.328125 462.453125 394.386719 459.0625 396.703125 C 455.667969 399.019531 452.464844 401.574219 449.445312 404.359375 C 446.421875 407.144531 443.621094 410.136719 441.039062 413.332031 C 438.457031 416.527344 436.117188 419.890625 434.027344 423.425781 C 424.222656 439.046875 416.910156 455.761719 412.089844 473.5625 C 412.027344 474.238281 412.027344 474.914062 412.089844 475.589844 L 465.820312 475.589844 C 470.335938 475.589844 472.640625 477.617188 472.640625 481.855469 C 472.765625 489.394531 472.441406 496.914062 471.675781 504.414062 C 470.910156 511.914062 469.703125 519.34375 468.058594 526.699219 C 466.414062 534.058594 464.339844 541.292969 461.839844 548.402344 C 459.335938 555.515625 456.425781 562.457031 453.101562 569.222656 C 453.054688 569.4375 453.054688 569.652344 453.101562 569.867188 C 452.886719 570.53125 452.617188 571.171875 452.289062 571.789062 C 451.960938 572.40625 451.578125 572.988281 451.148438 573.535156 C 450.714844 574.082031 450.238281 574.589844 449.71875 575.054688 C 449.195312 575.515625 448.636719 575.933594 448.042969 576.296875 C 447.445312 576.660156 446.824219 576.96875 446.171875 577.226562 C 445.523438 577.480469 444.855469 577.671875 444.171875 577.808594 C 443.484375 577.945312 442.792969 578.019531 442.097656 578.03125 C 441.398438 578.046875 440.707031 577.996094 440.015625 577.886719 C 415.6875 577.886719 391.265625 577.886719 366.933594 577.886719 C 366.054688 577.964844 365.1875 577.90625 364.324219 577.71875 C 363.464844 577.53125 362.652344 577.21875 361.886719 576.78125 C 361.121094 576.347656 360.4375 575.804688 359.835938 575.160156 C 359.234375 574.515625 358.742188 573.796875 358.363281 573 C 353.191406 563.6875 348.976562 553.960938 345.722656 543.816406 C 342.464844 533.675781 340.226562 523.3125 339.007812 512.730469 C 337.71875 503.515625 337.351562 493.375 336.796875 483.699219 C 336.796875 477.433594 338.457031 475.679688 344.632812 475.679688 L 398.730469 475.679688 Z M 347.304688 487.292969 C 347.855469 493.929688 348.226562 500.105469 348.960938 506.371094 C 349.929688 516.382812 351.808594 526.226562 354.597656 535.890625 C 357.386719 545.558594 361.039062 554.886719 365.550781 563.878906 C 365.730469 564.328125 365.976562 564.738281 366.292969 565.109375 C 366.605469 565.480469 366.972656 565.789062 367.386719 566.039062 C 367.804688 566.289062 368.25 566.464844 368.722656 566.570312 C 369.199219 566.671875 369.675781 566.695312 370.160156 566.644531 L 437.894531 566.644531 C 438.460938 566.699219 439.023438 566.664062 439.578125 566.535156 C 440.128906 566.40625 440.648438 566.191406 441.132812 565.890625 C 441.617188 565.59375 442.039062 565.222656 442.398438 564.78125 C 442.761719 564.34375 443.042969 563.855469 443.242188 563.324219 C 447.3125 555.222656 450.65625 546.832031 453.273438 538.148438 C 455.886719 529.46875 457.734375 520.625 458.816406 511.625 C 459.921875 503.605469 460.476562 495.496094 461.304688 487.292969 Z M 366.75 339.195312 L 368.132812 337.71875 C 365.445312 332.792969 362.1875 328.277344 358.363281 324.171875 C 348.066406 315.695312 337.285156 307.894531 326.015625 300.761719 C 323.726562 299.199219 321.34375 297.796875 318.859375 296.5625 C 316.378906 295.324219 313.824219 294.265625 311.195312 293.382812 C 308.570312 292.5 305.890625 291.800781 303.167969 291.289062 C 300.441406 290.773438 297.695312 290.449219 294.925781 290.316406 C 292.15625 290.183594 289.394531 290.242188 286.632812 290.488281 C 283.871094 290.738281 281.140625 291.175781 278.4375 291.800781 C 275.738281 292.425781 273.09375 293.234375 270.503906 294.226562 C 267.914062 295.21875 265.40625 296.382812 262.976562 297.722656 L 259.9375 299.472656 C 269.542969 300.230469 279.050781 301.644531 288.457031 303.722656 C 297.867188 305.800781 307.085938 308.519531 316.117188 311.875 C 325.148438 315.234375 333.902344 319.199219 342.382812 323.777344 C 350.863281 328.351562 358.984375 333.488281 366.75 339.195312 Z M 510.886719 385.273438 C 514.203125 410.800781 538.996094 459.738281 553.28125 469.046875 C 553.378906 468.554688 553.378906 468.0625 553.28125 467.570312 C 546.734375 443.703125 540.378906 419.742188 534.019531 395.78125 C 533.871094 394.699219 533.378906 393.808594 532.542969 393.105469 C 525.78125 389.269531 518.5625 386.71875 510.886719 385.457031 Z M 257.539062 469.507812 C 262.996094 463.613281 268.019531 457.367188 272.601562 450.769531 C 277.1875 444.171875 281.292969 437.289062 284.914062 430.121094 C 288.539062 422.949219 291.648438 415.5625 294.238281 407.960938 C 296.832031 400.355469 298.882812 392.609375 300.394531 384.71875 L 280.582031 392.183594 C 280.085938 392.351562 279.625 392.578125 279.195312 392.871094 C 278.769531 393.164062 278.386719 393.511719 278.054688 393.910156 C 277.71875 394.308594 277.445312 394.742188 277.234375 395.21875 C 277.019531 395.691406 276.878906 396.1875 276.800781 396.703125 C 272.46875 413.289062 267.585938 429.785156 263.625 446.375 Z M 515.585938 302.332031 C 505.101562 308.550781 495.214844 315.613281 485.933594 323.519531 C 476.648438 331.425781 468.101562 340.0625 460.289062 349.421875 C 465.96875 347.0625 471.425781 344.265625 476.65625 341.03125 C 481.886719 337.800781 486.828125 334.171875 491.476562 330.148438 C 496.125 326.121094 500.425781 321.753906 504.378906 317.042969 C 508.332031 312.332031 511.882812 307.335938 515.035156 302.054688 Z M 262.515625 404.996094 C 245.746094 419.1875 245.558594 437.34375 248.324219 457.15625 Z M 548.210938 404.996094 L 561.667969 457.066406 C 565.167969 437.34375 564.800781 419.1875 548.027344 404.996094 Z M 397.992188 266.757812 L 397.4375 266.757812 C 394.765625 272.65625 392.09375 278.554688 389.695312 284.542969 C 389.085938 286.539062 389.085938 288.535156 389.695312 290.535156 C 391.910156 298.734375 394.398438 306.847656 396.886719 314.957031 C 397.167969 315.957031 397.503906 316.941406 397.898438 317.90625 Z M 397.992188 266.757812" fill="#000000"></path><path fill-rule="nonzero" fill-opacity="1" d="M 433.65625 554.203125 L 423.886719 548.394531 C 430.464844 534.074219 435.074219 519.144531 437.710938 503.605469 L 448.769531 505.542969 C 446.070312 522.488281 441.03125 538.707031 433.65625 554.203125 Z M 433.65625 554.203125" fill="#000000"></path></svg>