<svg version="1.0" preserveAspectRatio="xMidYMid meet" height="1080" viewBox="0 0 810 809.999993" zoomAndPan="magnify" width="1080" xmlns:xlink="http://www.w3.org/1999/xlink" xmlns="http://www.w3.org/2000/svg"><rect fill-opacity="1" height="971.999992" y="-80.999999" fill="#ffffff" width="972" x="-81"></rect><rect fill-opacity="1" height="971.999992" y="-80.999999" fill="#ffffff" width="972" x="-81"></rect><path fill-rule="nonzero" fill-opacity="1" d="M 539.785156 383.210938 L 531.117188 383.210938 L 531.117188 309.257812 C 531.117188 308.960938 531.085938 308.664062 531.027344 308.375 C 530.96875 308.082031 530.878906 307.800781 530.761719 307.527344 C 530.644531 307.253906 530.5 306.992188 530.332031 306.75 C 530.160156 306.503906 529.96875 306.28125 529.75 306.074219 C 529.535156 305.871094 529.300781 305.691406 529.046875 305.535156 C 528.792969 305.375 528.527344 305.246094 528.25 305.144531 C 527.96875 305.042969 527.683594 304.96875 527.386719 304.925781 C 527.09375 304.882812 526.796875 304.867188 526.5 304.882812 L 513.703125 304.882812 L 513.703125 299.699219 C 514.59375 299.457031 515.457031 299.144531 516.296875 298.761719 C 517.136719 298.378906 517.941406 297.933594 518.710938 297.425781 C 519.480469 296.914062 520.203125 296.347656 520.882812 295.722656 C 521.5625 295.097656 522.1875 294.425781 522.761719 293.699219 C 523.332031 292.976562 523.84375 292.210938 524.292969 291.40625 C 524.746094 290.601562 525.128906 289.765625 525.445312 288.898438 C 525.761719 288.035156 526.011719 287.148438 526.1875 286.242188 C 526.363281 285.335938 526.46875 284.421875 526.5 283.5 C 526.5 275.398438 514.996094 258.308594 512.730469 254.90625 L 511.921875 254.097656 C 511.683594 253.917969 511.429688 253.761719 511.160156 253.628906 C 510.890625 253.5 510.613281 253.394531 510.324219 253.320312 C 510.039062 253.242188 509.746094 253.195312 509.445312 253.171875 C 509.148438 253.152344 508.851562 253.160156 508.554688 253.199219 C 508.257812 253.238281 507.96875 253.300781 507.6875 253.394531 C 507.402344 253.488281 507.132812 253.609375 506.871094 253.757812 C 506.609375 253.902344 506.367188 254.074219 506.140625 254.265625 C 505.914062 254.460938 505.707031 254.671875 505.519531 254.90625 C 503.253906 258.308594 491.75 275.320312 491.75 283.5 C 491.789062 284.4375 491.902344 285.367188 492.09375 286.285156 C 492.28125 287.207031 492.542969 288.101562 492.878906 288.980469 C 493.210938 289.859375 493.613281 290.703125 494.085938 291.515625 C 494.554688 292.328125 495.089844 293.09375 495.683594 293.820312 C 496.28125 294.546875 496.929688 295.21875 497.632812 295.839844 C 498.335938 296.460938 499.085938 297.023438 499.882812 297.519531 C 500.675781 298.019531 501.503906 298.453125 502.371094 298.820312 C 503.234375 299.183594 504.121094 299.476562 505.035156 299.699219 L 505.035156 304.558594 L 491.992188 304.558594 C 491.707031 304.558594 491.421875 304.589844 491.140625 304.644531 C 490.859375 304.699219 490.585938 304.78125 490.320312 304.894531 C 490.054688 305.003906 489.800781 305.136719 489.5625 305.296875 C 489.324219 305.457031 489.105469 305.636719 488.902344 305.839844 C 488.699219 306.042969 488.515625 306.265625 488.355469 306.503906 C 488.199219 306.742188 488.0625 306.996094 487.953125 307.261719 C 487.84375 307.527344 487.761719 307.800781 487.703125 308.082031 C 487.648438 308.363281 487.621094 308.648438 487.621094 308.933594 L 487.621094 382.886719 L 477.898438 382.886719 C 477.621094 382.929688 477.347656 383.003906 477.082031 383.101562 C 476.816406 383.199219 476.5625 383.320312 476.320312 383.46875 C 476.082031 383.617188 475.855469 383.789062 475.648438 383.980469 C 475.441406 384.175781 475.253906 384.386719 475.089844 384.617188 C 474.925781 384.84375 474.78125 385.089844 474.664062 385.347656 C 474.546875 385.605469 474.457031 385.871094 474.390625 386.148438 C 474.328125 386.421875 474.289062 386.703125 474.28125 386.984375 C 474.269531 387.265625 474.289062 387.546875 474.335938 387.828125 L 474.984375 391.796875 C 475.355469 393.515625 475.859375 395.191406 476.503906 396.824219 C 477.144531 398.460938 477.917969 400.03125 478.816406 401.542969 C 479.714844 403.050781 480.726562 404.480469 481.859375 405.824219 C 482.988281 407.167969 484.222656 408.410156 485.554688 409.554688 C 486.886719 410.699219 488.304688 411.730469 489.804688 412.644531 C 491.304688 413.558594 492.871094 414.34375 494.496094 415.003906 C 496.125 415.660156 497.796875 416.183594 499.511719 416.574219 C 501.222656 416.960938 502.957031 417.207031 504.710938 417.3125 L 504.710938 426.304688 C 504.710938 427.015625 504.675781 427.726562 504.605469 428.4375 C 504.535156 429.144531 504.429688 429.847656 504.292969 430.546875 C 504.152344 431.246094 503.980469 431.9375 503.773438 432.617188 C 503.566406 433.300781 503.324219 433.972656 503.050781 434.628906 C 502.777344 435.289062 502.472656 435.929688 502.136719 436.558594 C 501.800781 437.1875 501.433594 437.796875 501.035156 438.386719 C 500.640625 438.980469 500.214844 439.550781 499.761719 440.101562 C 499.308594 440.652344 498.828125 441.179688 498.324219 441.679688 C 497.820312 442.183594 497.289062 442.660156 496.738281 443.113281 C 496.1875 443.5625 495.613281 443.984375 495.019531 444.378906 C 494.425781 444.773438 493.816406 445.140625 493.1875 445.472656 C 492.558594 445.808594 491.914062 446.109375 491.253906 446.382812 C 490.59375 446.652344 489.925781 446.890625 489.242188 447.09375 C 488.558594 447.300781 487.867188 447.472656 487.167969 447.609375 C 486.46875 447.746094 485.765625 447.847656 485.054688 447.914062 C 484.34375 447.980469 483.632812 448.011719 482.921875 448.011719 L 409.375 448.011719 L 409.375 417.71875 C 411.128906 417.613281 412.859375 417.363281 414.574219 416.976562 C 416.289062 416.589844 417.957031 416.066406 419.585938 415.40625 C 421.214844 414.75 422.78125 413.960938 424.28125 413.046875 C 425.78125 412.132812 427.199219 411.105469 428.53125 409.960938 C 429.863281 408.816406 431.09375 407.574219 432.226562 406.226562 C 433.355469 404.882812 434.371094 403.457031 435.269531 401.945312 C 436.167969 400.4375 436.9375 398.863281 437.582031 397.230469 C 438.222656 395.59375 438.730469 393.917969 439.101562 392.203125 L 439.75 388.234375 L 439.75 387.585938 C 439.753906 387.300781 439.730469 387.015625 439.679688 386.734375 C 439.628906 386.457031 439.550781 386.183594 439.445312 385.917969 C 439.339844 385.652344 439.210938 385.398438 439.054688 385.160156 C 438.898438 384.921875 438.71875 384.699219 438.519531 384.496094 C 438.320312 384.292969 438.101562 384.113281 437.867188 383.953125 C 437.628906 383.792969 437.382812 383.65625 437.117188 383.546875 C 436.855469 383.433594 436.582031 383.351562 436.304688 383.296875 C 436.023438 383.238281 435.742188 383.210938 435.457031 383.210938 L 426.707031 383.210938 L 426.707031 309.257812 C 426.707031 308.972656 426.679688 308.691406 426.625 308.414062 C 426.570312 308.136719 426.492188 307.867188 426.382812 307.601562 C 426.277344 307.339844 426.144531 307.089844 425.988281 306.851562 C 425.832031 306.617188 425.65625 306.394531 425.457031 306.195312 C 425.257812 305.992188 425.039062 305.808594 424.804688 305.648438 C 424.570312 305.488281 424.324219 305.351562 424.0625 305.238281 C 423.804688 305.128906 423.535156 305.042969 423.257812 304.980469 C 422.980469 304.921875 422.699219 304.890625 422.414062 304.882812 L 409.375 304.882812 L 409.375 299.699219 C 410.273438 299.464844 411.148438 299.160156 412 298.78125 C 412.851562 298.40625 413.664062 297.964844 414.445312 297.460938 C 415.226562 296.957031 415.960938 296.390625 416.652344 295.769531 C 417.34375 295.144531 417.980469 294.472656 418.5625 293.746094 C 419.144531 293.023438 419.667969 292.257812 420.128906 291.449219 C 420.589844 290.640625 420.984375 289.804688 421.3125 288.933594 C 421.636719 288.0625 421.894531 287.171875 422.078125 286.261719 C 422.265625 285.347656 422.375 284.429688 422.414062 283.5 C 422.414062 275.398438 410.914062 258.308594 408.5625 254.90625 L 407.753906 254.097656 C 407.519531 253.917969 407.269531 253.765625 407.003906 253.632812 C 406.738281 253.503906 406.464844 253.402344 406.179688 253.324219 C 405.894531 253.246094 405.605469 253.199219 405.308594 253.179688 C 405.015625 253.160156 404.722656 253.167969 404.429688 253.207031 C 404.136719 253.242188 403.851562 253.308594 403.570312 253.402344 C 403.289062 253.496094 403.019531 253.617188 402.765625 253.761719 C 402.507812 253.90625 402.269531 254.078125 402.042969 254.269531 C 401.820312 254.460938 401.617188 254.675781 401.4375 254.90625 C 399.085938 257.984375 387.585938 275.398438 387.585938 283.5 C 387.625 284.429688 387.734375 285.347656 387.921875 286.261719 C 388.105469 287.171875 388.363281 288.0625 388.6875 288.933594 C 389.015625 289.804688 389.410156 290.640625 389.871094 291.449219 C 390.332031 292.257812 390.855469 293.023438 391.4375 293.746094 C 392.019531 294.472656 392.65625 295.144531 393.347656 295.769531 C 394.039062 296.390625 394.773438 296.957031 395.554688 297.460938 C 396.335938 297.964844 397.148438 298.40625 398 298.78125 C 398.851562 299.160156 399.726562 299.464844 400.625 299.699219 L 400.625 304.558594 L 387.585938 304.558594 C 387.300781 304.566406 387.019531 304.597656 386.742188 304.65625 C 386.464844 304.71875 386.195312 304.804688 385.9375 304.914062 C 385.675781 305.027344 385.429688 305.164062 385.195312 305.324219 C 384.960938 305.484375 384.742188 305.667969 384.542969 305.871094 C 384.34375 306.070312 384.167969 306.292969 384.011719 306.527344 C 383.855469 306.765625 383.722656 307.015625 383.617188 307.277344 C 383.507812 307.542969 383.429688 307.8125 383.375 308.089844 C 383.320312 308.367188 383.292969 308.648438 383.292969 308.933594 L 383.292969 382.886719 L 373.816406 382.886719 C 373.535156 382.929688 373.261719 383.003906 372.996094 383.101562 C 372.730469 383.199219 372.476562 383.320312 372.238281 383.46875 C 371.996094 383.617188 371.773438 383.789062 371.5625 383.980469 C 371.355469 384.175781 371.171875 384.386719 371.003906 384.617188 C 370.839844 384.84375 370.699219 385.089844 370.578125 385.347656 C 370.460938 385.605469 370.371094 385.871094 370.308594 386.148438 C 370.242188 386.421875 370.207031 386.703125 370.195312 386.984375 C 370.1875 387.265625 370.203125 387.546875 370.25 387.828125 L 370.898438 391.796875 C 371.269531 393.515625 371.777344 395.191406 372.417969 396.824219 C 373.0625 398.460938 373.832031 400.03125 374.730469 401.542969 C 375.628906 403.050781 376.644531 404.480469 377.773438 405.824219 C 378.90625 407.167969 380.136719 408.410156 381.46875 409.554688 C 382.800781 410.699219 384.21875 411.730469 385.71875 412.644531 C 387.21875 413.558594 388.785156 414.34375 390.414062 415.003906 C 392.042969 415.660156 393.710938 416.183594 395.425781 416.574219 C 397.140625 416.960938 398.871094 417.207031 400.625 417.3125 L 400.625 448.011719 L 326.753906 448.011719 C 326.042969 448.011719 325.332031 447.980469 324.621094 447.914062 C 323.910156 447.847656 323.207031 447.746094 322.507812 447.609375 C 321.808594 447.472656 321.117188 447.300781 320.433594 447.09375 C 319.75 446.890625 319.082031 446.652344 318.421875 446.382812 C 317.761719 446.109375 317.117188 445.808594 316.488281 445.472656 C 315.859375 445.140625 315.25 444.773438 314.65625 444.378906 C 314.0625 443.984375 313.488281 443.5625 312.9375 443.113281 C 312.386719 442.660156 311.855469 442.183594 311.351562 441.683594 C 310.847656 441.179688 310.367188 440.652344 309.914062 440.101562 C 309.460938 439.550781 309.035156 438.980469 308.640625 438.390625 C 308.242188 437.796875 307.875 437.1875 307.539062 436.558594 C 307.203125 435.929688 306.898438 435.289062 306.625 434.628906 C 306.351562 433.972656 306.113281 433.300781 305.902344 432.617188 C 305.695312 431.9375 305.523438 431.246094 305.382812 430.546875 C 305.246094 429.847656 305.140625 429.144531 305.070312 428.4375 C 305 427.726562 304.964844 427.015625 304.964844 426.304688 L 304.964844 417.71875 C 306.71875 417.613281 308.453125 417.363281 310.164062 416.976562 C 311.878906 416.589844 313.550781 416.066406 315.179688 415.40625 C 316.804688 414.75 318.371094 413.960938 319.871094 413.046875 C 321.371094 412.132812 322.789062 411.105469 324.121094 409.960938 C 325.453125 408.816406 326.6875 407.574219 327.816406 406.226562 C 328.949219 404.882812 329.960938 403.457031 330.859375 401.945312 C 331.757812 400.4375 332.53125 398.863281 333.171875 397.230469 C 333.816406 395.59375 334.320312 393.917969 334.691406 392.203125 L 335.339844 388.234375 C 335.378906 388.015625 335.378906 387.800781 335.339844 387.585938 C 335.339844 387.296875 335.3125 387.011719 335.257812 386.730469 C 335.199219 386.449219 335.117188 386.175781 335.007812 385.910156 C 334.898438 385.644531 334.761719 385.394531 334.601562 385.15625 C 334.441406 384.917969 334.261719 384.695312 334.058594 384.492188 C 333.855469 384.289062 333.636719 384.109375 333.394531 383.949219 C 333.15625 383.789062 332.90625 383.652344 332.640625 383.542969 C 332.375 383.433594 332.101562 383.351562 331.820312 383.296875 C 331.539062 383.238281 331.253906 383.210938 330.964844 383.210938 L 322.378906 383.210938 L 322.378906 309.257812 C 322.378906 308.972656 322.351562 308.6875 322.296875 308.40625 C 322.238281 308.121094 322.15625 307.847656 322.046875 307.585938 C 321.9375 307.320312 321.800781 307.066406 321.644531 306.828125 C 321.484375 306.589844 321.300781 306.367188 321.097656 306.164062 C 320.894531 305.960938 320.675781 305.78125 320.4375 305.621094 C 320.195312 305.460938 319.945312 305.328125 319.679688 305.21875 C 319.414062 305.105469 319.140625 305.023438 318.859375 304.96875 C 318.578125 304.910156 318.292969 304.882812 318.007812 304.882812 L 304.964844 304.882812 L 304.964844 299.699219 C 305.867188 299.46875 306.742188 299.164062 307.59375 298.789062 C 308.445312 298.417969 309.265625 297.976562 310.046875 297.472656 C 310.828125 296.96875 311.566406 296.40625 312.257812 295.78125 C 312.949219 295.160156 313.585938 294.484375 314.167969 293.761719 C 314.753906 293.035156 315.273438 292.269531 315.734375 291.460938 C 316.195312 290.652344 316.589844 289.8125 316.914062 288.941406 C 317.242188 288.066406 317.496094 287.175781 317.679688 286.261719 C 317.863281 285.351562 317.972656 284.429688 318.007812 283.5 C 318.007812 275.398438 306.503906 258.308594 304.234375 254.90625 L 303.34375 254.097656 C 303.109375 253.917969 302.859375 253.765625 302.59375 253.632812 C 302.332031 253.503906 302.054688 253.402344 301.769531 253.324219 C 301.484375 253.246094 301.195312 253.199219 300.902344 253.179688 C 300.605469 253.160156 300.3125 253.167969 300.019531 253.207031 C 299.726562 253.242188 299.441406 253.308594 299.160156 253.402344 C 298.878906 253.496094 298.613281 253.617188 298.355469 253.761719 C 298.097656 253.90625 297.859375 254.078125 297.636719 254.269531 C 297.410156 254.460938 297.210938 254.675781 297.027344 254.90625 C 294.757812 257.984375 283.5 275.398438 283.5 283.5 C 283.53125 284.421875 283.636719 285.335938 283.8125 286.242188 C 283.988281 287.148438 284.238281 288.035156 284.554688 288.898438 C 284.871094 289.765625 285.253906 290.601562 285.707031 291.40625 C 286.15625 292.210938 286.667969 292.976562 287.238281 293.699219 C 287.8125 294.425781 288.4375 295.097656 289.117188 295.722656 C 289.796875 296.347656 290.519531 296.914062 291.289062 297.425781 C 292.058594 297.933594 292.863281 298.378906 293.703125 298.761719 C 294.542969 299.144531 295.40625 299.457031 296.296875 299.699219 L 296.296875 304.558594 L 283.5 304.558594 C 283.210938 304.558594 282.929688 304.589844 282.648438 304.644531 C 282.363281 304.699219 282.089844 304.78125 281.824219 304.894531 C 281.5625 305.003906 281.308594 305.136719 281.070312 305.296875 C 280.832031 305.457031 280.609375 305.636719 280.40625 305.839844 C 280.203125 306.042969 280.023438 306.265625 279.863281 306.503906 C 279.703125 306.742188 279.570312 306.996094 279.457031 307.261719 C 279.347656 307.527344 279.265625 307.800781 279.210938 308.082031 C 279.152344 308.363281 279.125 308.648438 279.125 308.933594 L 279.125 382.886719 L 269.488281 382.886719 C 269.207031 382.929688 268.933594 383.003906 268.667969 383.101562 C 268.402344 383.199219 268.148438 383.320312 267.910156 383.46875 C 267.667969 383.617188 267.445312 383.789062 267.234375 383.980469 C 267.027344 384.175781 266.84375 384.386719 266.675781 384.617188 C 266.511719 384.84375 266.371094 385.089844 266.253906 385.347656 C 266.132812 385.605469 266.042969 385.871094 265.980469 386.148438 C 265.914062 386.421875 265.878906 386.703125 265.867188 386.984375 C 265.859375 387.265625 265.875 387.546875 265.921875 387.828125 L 266.570312 391.796875 C 266.941406 393.515625 267.449219 395.191406 268.089844 396.824219 C 268.734375 398.460938 269.503906 400.03125 270.402344 401.542969 C 271.300781 403.050781 272.316406 404.480469 273.445312 405.824219 C 274.578125 407.167969 275.808594 408.410156 277.140625 409.554688 C 278.472656 410.699219 279.890625 411.730469 281.390625 412.644531 C 282.890625 413.558594 284.457031 414.34375 286.085938 415.003906 C 287.714844 415.660156 289.382812 416.183594 291.097656 416.574219 C 292.8125 416.960938 294.542969 417.207031 296.296875 417.3125 L 296.296875 426.304688 C 296.300781 427.300781 296.351562 428.292969 296.453125 429.285156 C 296.550781 430.277344 296.699219 431.261719 296.898438 432.238281 C 297.09375 433.214844 297.335938 434.179688 297.628906 435.136719 C 297.917969 436.089844 298.253906 437.023438 298.636719 437.945312 C 299.019531 438.867188 299.445312 439.765625 299.917969 440.644531 C 300.390625 441.523438 300.902344 442.375 301.457031 443.203125 C 302.011719 444.03125 302.601562 444.832031 303.234375 445.601562 C 303.867188 446.371094 304.539062 447.109375 305.242188 447.816406 C 305.945312 448.519531 306.683594 449.1875 307.453125 449.820312 C 308.226562 450.453125 309.023438 451.046875 309.851562 451.601562 C 310.679688 452.15625 311.535156 452.667969 312.414062 453.140625 C 313.292969 453.609375 314.191406 454.035156 315.113281 454.417969 C 316.03125 454.800781 316.96875 455.136719 317.921875 455.429688 C 318.875 455.71875 319.839844 455.964844 320.816406 456.160156 C 321.796875 456.355469 322.78125 456.503906 323.769531 456.605469 C 324.761719 456.703125 325.757812 456.757812 326.753906 456.757812 L 400.625 456.757812 L 400.625 526.5 L 391.957031 526.5 C 391.105469 526.5 390.253906 526.542969 389.402344 526.625 C 388.550781 526.710938 387.707031 526.835938 386.871094 527 C 386.03125 527.167969 385.207031 527.375 384.386719 527.625 C 383.570312 527.871094 382.765625 528.160156 381.976562 528.484375 C 381.1875 528.8125 380.417969 529.175781 379.664062 529.578125 C 378.910156 529.984375 378.179688 530.421875 377.46875 530.894531 C 376.757812 531.371094 376.074219 531.878906 375.414062 532.421875 C 374.753906 532.960938 374.121094 533.535156 373.515625 534.140625 C 372.914062 534.742188 372.339844 535.375 371.796875 536.035156 C 371.253906 536.695312 370.746094 537.382812 370.273438 538.089844 C 369.796875 538.800781 369.359375 539.535156 368.957031 540.285156 C 368.554688 541.039062 368.1875 541.8125 367.863281 542.601562 C 367.535156 543.390625 367.246094 544.195312 367 545.011719 C 366.753906 545.828125 366.542969 546.65625 366.378906 547.492188 C 366.210938 548.332031 366.085938 549.175781 366.003906 550.027344 C 365.917969 550.875 365.878906 551.726562 365.878906 552.582031 C 365.878906 552.863281 365.90625 553.144531 365.960938 553.417969 C 366.015625 553.695312 366.097656 553.964844 366.203125 554.226562 C 366.3125 554.484375 366.445312 554.734375 366.601562 554.96875 C 366.757812 555.203125 366.933594 555.417969 367.132812 555.617188 C 367.332031 555.816406 367.550781 555.996094 367.785156 556.152344 C 368.019531 556.308594 368.265625 556.441406 368.527344 556.546875 C 368.789062 556.65625 369.054688 556.738281 369.332031 556.792969 C 369.609375 556.847656 369.886719 556.875 370.171875 556.875 L 439.828125 556.875 C 440.113281 556.875 440.390625 556.847656 440.667969 556.792969 C 440.945312 556.738281 441.210938 556.65625 441.472656 556.546875 C 441.734375 556.441406 441.980469 556.308594 442.214844 556.152344 C 442.449219 555.996094 442.667969 555.816406 442.867188 555.617188 C 443.066406 555.417969 443.242188 555.203125 443.398438 554.96875 C 443.554688 554.734375 443.6875 554.484375 443.796875 554.226562 C 443.902344 553.964844 443.984375 553.695312 444.039062 553.417969 C 444.09375 553.144531 444.121094 552.863281 444.121094 552.582031 C 444.121094 551.726562 444.082031 550.875 443.996094 550.027344 C 443.914062 549.175781 443.789062 548.332031 443.621094 547.492188 C 443.457031 546.65625 443.246094 545.828125 443 545.011719 C 442.75 544.195312 442.464844 543.390625 442.136719 542.601562 C 441.8125 541.8125 441.445312 541.039062 441.042969 540.285156 C 440.640625 539.535156 440.203125 538.800781 439.726562 538.089844 C 439.253906 537.382812 438.746094 536.695312 438.203125 536.035156 C 437.660156 535.375 437.085938 534.742188 436.484375 534.140625 C 435.878906 533.535156 435.246094 532.960938 434.585938 532.421875 C 433.925781 531.878906 433.242188 531.371094 432.53125 530.894531 C 431.820312 530.421875 431.089844 529.980469 430.335938 529.578125 C 429.582031 529.175781 428.8125 528.8125 428.023438 528.484375 C 427.234375 528.160156 426.429688 527.871094 425.613281 527.625 C 424.792969 527.375 423.96875 527.167969 423.128906 527 C 422.292969 526.835938 421.449219 526.710938 420.597656 526.625 C 419.746094 526.542969 418.894531 526.5 418.039062 526.5 L 409.375 526.5 L 409.375 457.164062 L 483.246094 457.164062 C 484.242188 457.160156 485.238281 457.109375 486.230469 457.011719 C 487.21875 456.910156 488.203125 456.761719 489.183594 456.566406 C 490.160156 456.367188 491.125 456.125 492.078125 455.835938 C 493.03125 455.542969 493.96875 455.207031 494.886719 454.824219 C 495.808594 454.441406 496.707031 454.015625 497.585938 453.542969 C 498.464844 453.074219 499.320312 452.5625 500.148438 452.007812 C 500.976562 451.453125 501.773438 450.859375 502.546875 450.226562 C 503.316406 449.59375 504.054688 448.925781 504.757812 448.21875 C 505.460938 447.515625 506.132812 446.777344 506.765625 446.007812 C 507.398438 445.238281 507.988281 444.4375 508.542969 443.609375 C 509.097656 442.78125 509.609375 441.925781 510.082031 441.050781 C 510.550781 440.171875 510.980469 439.269531 511.363281 438.351562 C 511.746094 437.429688 512.082031 436.492188 512.371094 435.539062 C 512.664062 434.585938 512.90625 433.621094 513.101562 432.644531 C 513.300781 431.667969 513.449219 430.683594 513.546875 429.691406 C 513.648438 428.699219 513.699219 427.703125 513.703125 426.707031 L 513.703125 417.71875 C 515.457031 417.613281 517.1875 417.363281 518.902344 416.976562 C 520.617188 416.589844 522.285156 416.066406 523.914062 415.40625 C 525.542969 414.75 527.109375 413.960938 528.609375 413.046875 C 530.109375 412.132812 531.527344 411.105469 532.859375 409.960938 C 534.191406 408.816406 535.421875 407.574219 536.554688 406.226562 C 537.683594 404.882812 538.699219 403.457031 539.597656 401.945312 C 540.496094 400.4375 541.265625 398.863281 541.910156 397.230469 C 542.550781 395.59375 543.058594 393.917969 543.429688 392.203125 L 544.078125 388.234375 C 544.117188 388.015625 544.117188 387.800781 544.078125 387.585938 C 544.078125 387.300781 544.050781 387.019531 543.996094 386.742188 C 543.941406 386.464844 543.859375 386.191406 543.75 385.929688 C 543.644531 385.667969 543.511719 385.417969 543.355469 385.179688 C 543.199219 384.941406 543.023438 384.722656 542.824219 384.519531 C 542.625 384.316406 542.410156 384.136719 542.175781 383.976562 C 541.941406 383.816406 541.695312 383.679688 541.433594 383.566406 C 541.171875 383.453125 540.902344 383.367188 540.625 383.308594 C 540.347656 383.25 540.066406 383.214844 539.785156 383.210938 Z M 500.660156 283.5 C 502.484375 276.925781 505.402344 270.878906 509.410156 265.355469 C 513.488281 270.867188 516.484375 276.914062 518.398438 283.5 C 518.347656 284.035156 518.246094 284.5625 518.097656 285.082031 C 517.949219 285.597656 517.753906 286.097656 517.511719 286.582031 C 517.269531 287.0625 516.988281 287.519531 516.660156 287.949219 C 516.335938 288.378906 515.972656 288.773438 515.574219 289.136719 C 515.175781 289.496094 514.746094 289.820312 514.285156 290.105469 C 513.828125 290.386719 513.347656 290.625 512.84375 290.820312 C 512.34375 291.015625 511.824219 291.160156 511.296875 291.257812 C 510.765625 291.359375 510.230469 291.40625 509.691406 291.40625 C 509.152344 291.40625 508.617188 291.359375 508.089844 291.257812 C 507.558594 291.160156 507.042969 291.015625 506.539062 290.820312 C 506.039062 290.625 505.558594 290.386719 505.097656 290.105469 C 504.640625 289.820312 504.210938 289.496094 503.8125 289.136719 C 503.414062 288.773438 503.050781 288.378906 502.722656 287.949219 C 502.398438 287.519531 502.113281 287.0625 501.871094 286.582031 C 501.632812 286.097656 501.4375 285.597656 501.285156 285.082031 C 501.136719 284.5625 501.035156 284.035156 500.984375 283.5 Z M 396.332031 283.5 C 398.109375 276.824219 401 270.667969 405 265.03125 C 409 270.667969 411.890625 276.824219 413.667969 283.5 C 413.667969 284.070312 413.613281 284.632812 413.5 285.191406 C 413.390625 285.75 413.226562 286.289062 413.007812 286.816406 C 412.789062 287.34375 412.523438 287.84375 412.207031 288.316406 C 411.890625 288.789062 411.53125 289.226562 411.128906 289.628906 C 410.726562 290.03125 410.289062 290.390625 409.816406 290.707031 C 409.34375 291.023438 408.84375 291.289062 408.316406 291.507812 C 407.789062 291.726562 407.25 291.890625 406.691406 292 C 406.132812 292.113281 405.570312 292.167969 405 292.167969 C 404.429688 292.167969 403.867188 292.113281 403.308594 292 C 402.75 291.890625 402.210938 291.726562 401.683594 291.507812 C 401.15625 291.289062 400.65625 291.023438 400.183594 290.707031 C 399.710938 290.390625 399.273438 290.03125 398.871094 289.628906 C 398.46875 289.226562 398.109375 288.789062 397.792969 288.316406 C 397.476562 287.84375 397.210938 287.34375 396.992188 286.816406 C 396.773438 286.289062 396.609375 285.75 396.5 285.191406 C 396.386719 284.632812 396.332031 284.070312 396.332031 283.5 Z M 391.957031 313.957031 L 418.039062 313.957031 L 418.039062 383.535156 L 391.957031 383.535156 Z M 379.726562 392.203125 L 430.273438 392.203125 C 429.835938 393.5 429.300781 394.753906 428.660156 395.964844 C 428.019531 397.175781 427.285156 398.324219 426.457031 399.417969 C 425.628906 400.507812 424.71875 401.523438 423.722656 402.464844 C 422.726562 403.40625 421.664062 404.257812 420.527344 405.027344 C 419.394531 405.792969 418.207031 406.460938 416.960938 407.035156 C 415.71875 407.609375 414.4375 408.074219 413.117188 408.4375 C 411.796875 408.800781 410.453125 409.054688 409.09375 409.199219 C 407.730469 409.339844 406.367188 409.371094 405 409.292969 C 403.625 409.367188 402.25 409.328125 400.878906 409.175781 C 399.507812 409.027344 398.160156 408.761719 396.832031 408.390625 C 395.503906 408.015625 394.21875 407.535156 392.96875 406.949219 C 391.722656 406.363281 390.527344 405.679688 389.394531 404.894531 C 388.257812 404.113281 387.195312 403.242188 386.203125 402.285156 C 385.210938 401.328125 384.304688 400.296875 383.480469 399.1875 C 382.660156 398.082031 381.933594 396.914062 381.304688 395.6875 C 380.671875 394.460938 380.148438 393.191406 379.726562 391.878906 Z M 291.601562 283.5 C 293.476562 276.800781 296.476562 270.644531 300.589844 265.03125 C 304.636719 270.652344 307.550781 276.808594 309.339844 283.5 C 309.339844 284.082031 309.28125 284.660156 309.167969 285.230469 C 309.054688 285.800781 308.886719 286.355469 308.664062 286.894531 C 308.441406 287.433594 308.167969 287.945312 307.84375 288.425781 C 307.519531 288.910156 307.152344 289.359375 306.742188 289.773438 C 306.328125 290.183594 305.882812 290.550781 305.398438 290.875 C 304.914062 291.199219 304.402344 291.472656 303.863281 291.695312 C 303.324219 291.917969 302.769531 292.085938 302.199219 292.199219 C 301.628906 292.3125 301.050781 292.371094 300.46875 292.371094 C 299.886719 292.371094 299.308594 292.3125 298.738281 292.199219 C 298.167969 292.085938 297.613281 291.917969 297.074219 291.695312 C 296.539062 291.472656 296.027344 291.199219 295.542969 290.875 C 295.058594 290.550781 294.609375 290.183594 294.199219 289.773438 C 293.785156 289.359375 293.417969 288.910156 293.09375 288.425781 C 292.769531 287.945312 292.496094 287.433594 292.273438 286.894531 C 292.050781 286.355469 291.882812 285.800781 291.769531 285.230469 C 291.65625 284.660156 291.601562 284.082031 291.601562 283.5 Z M 287.550781 313.632812 L 313.714844 313.632812 L 313.714844 383.210938 L 287.550781 383.210938 Z M 275.398438 391.878906 L 325.945312 391.878906 C 325.53125 393.195312 325.007812 394.46875 324.382812 395.699219 C 323.757812 396.929688 323.035156 398.101562 322.214844 399.210938 C 321.394531 400.320312 320.488281 401.355469 319.496094 402.316406 C 318.503906 403.277344 317.441406 404.148438 316.304688 404.929688 C 315.164062 405.714844 313.972656 406.398438 312.722656 406.984375 C 311.472656 407.570312 310.183594 408.046875 308.851562 408.417969 C 307.523438 408.789062 306.171875 409.046875 304.796875 409.195312 C 303.425781 409.34375 302.050781 409.375 300.671875 409.292969 C 299.296875 409.367188 297.921875 409.328125 296.550781 409.175781 C 295.179688 409.027344 293.832031 408.761719 292.503906 408.390625 C 291.175781 408.015625 289.890625 407.535156 288.640625 406.949219 C 287.394531 406.363281 286.199219 405.679688 285.066406 404.894531 C 283.929688 404.113281 282.867188 403.242188 281.875 402.285156 C 280.882812 401.328125 279.976562 400.296875 279.152344 399.1875 C 278.332031 398.082031 277.605469 396.914062 276.976562 395.6875 C 276.34375 394.460938 275.820312 393.191406 275.398438 391.878906 Z M 434.96875 548.449219 L 375.109375 548.449219 C 375.351562 547.523438 375.667969 546.625 376.054688 545.75 C 376.445312 544.875 376.902344 544.035156 377.429688 543.238281 C 377.957031 542.4375 378.546875 541.6875 379.195312 540.984375 C 379.847656 540.285156 380.550781 539.640625 381.308594 539.054688 C 382.066406 538.46875 382.863281 537.949219 383.707031 537.492188 C 384.550781 537.039062 385.425781 536.65625 386.332031 536.347656 C 387.238281 536.039062 388.160156 535.804688 389.105469 535.648438 C 390.050781 535.488281 391 535.410156 391.957031 535.410156 L 418.039062 535.410156 C 419 535.410156 419.949219 535.488281 420.894531 535.648438 C 421.839844 535.804688 422.761719 536.039062 423.667969 536.347656 C 424.574219 536.65625 425.449219 537.039062 426.292969 537.492188 C 427.136719 537.949219 427.933594 538.46875 428.691406 539.054688 C 429.449219 539.640625 430.152344 540.285156 430.804688 540.984375 C 431.453125 541.6875 432.042969 542.4375 432.570312 543.238281 C 433.097656 544.035156 433.554688 544.875 433.945312 545.75 C 434.332031 546.625 434.648438 547.523438 434.890625 548.449219 Z M 496.367188 313.550781 L 522.449219 313.550781 L 522.449219 383.128906 L 496.285156 383.128906 Z M 509.488281 409.210938 C 508.113281 409.292969 506.738281 409.261719 505.363281 409.113281 C 503.992188 408.96875 502.640625 408.707031 501.308594 408.335938 C 499.980469 407.964844 498.691406 407.488281 497.441406 406.902344 C 496.191406 406.316406 494.996094 405.632812 493.859375 404.851562 C 492.722656 404.066406 491.65625 403.195312 490.664062 402.234375 C 489.675781 401.273438 488.769531 400.238281 487.949219 399.128906 C 487.128906 398.019531 486.40625 396.847656 485.777344 395.617188 C 485.152344 394.386719 484.632812 393.113281 484.21875 391.796875 L 534.601562 391.796875 C 534.183594 393.109375 533.664062 394.382812 533.039062 395.609375 C 532.414062 396.835938 531.691406 398.003906 530.875 399.113281 C 530.054688 400.222656 529.152344 401.257812 528.164062 402.21875 C 527.175781 403.179688 526.117188 404.050781 524.984375 404.839844 C 523.855469 405.625 522.667969 406.3125 521.421875 406.902344 C 520.175781 407.492188 518.890625 407.976562 517.566406 408.355469 C 516.242188 408.734375 514.894531 409.003906 513.527344 409.160156 C 512.15625 409.316406 510.785156 409.363281 509.410156 409.292969 Z M 509.488281 409.210938" fill="#000000"></path></svg>