<svg version="1.0" preserveAspectRatio="xMidYMid meet" height="1080" viewBox="0 0 810 809.999993" zoomAndPan="magnify" width="1080" xmlns:xlink="http://www.w3.org/1999/xlink" xmlns="http://www.w3.org/2000/svg"><rect fill-opacity="1" height="971.999992" y="-80.999999" fill="#ffffff" width="972" x="-81"></rect><rect fill-opacity="1" height="971.999992" y="-80.999999" fill="#ffffff" width="972" x="-81"></rect><path fill-rule="nonzero" fill-opacity="1" d="M 588.691406 407.121094 C 588.453125 406.59375 588.175781 406.085938 587.859375 405.601562 C 587.542969 405.117188 587.191406 404.65625 586.804688 404.226562 C 586.414062 403.796875 585.996094 403.398438 585.546875 403.035156 C 585.09375 402.671875 584.617188 402.34375 584.117188 402.054688 C 583.617188 401.765625 583.09375 401.515625 582.554688 401.308594 C 582.011719 401.101562 581.457031 400.933594 580.890625 400.8125 C 580.324219 400.691406 579.753906 400.617188 579.175781 400.585938 C 578.597656 400.554688 578.019531 400.566406 577.441406 400.625 L 571.898438 400.625 C 560.714844 400.972656 549.625 400.128906 538.625 398.089844 C 535.675781 397.546875 532.765625 396.855469 529.890625 396.011719 C 527.015625 395.171875 524.191406 394.179688 521.417969 393.046875 C 518.644531 391.910156 515.9375 390.636719 513.296875 389.222656 C 510.652344 387.808594 508.09375 386.261719 505.609375 384.582031 C 503.128906 382.902344 500.742188 381.097656 498.445312 379.171875 C 496.148438 377.246094 493.960938 375.207031 491.875 373.054688 C 489.789062 370.902344 487.824219 368.648438 485.972656 366.292969 C 484.121094 363.9375 482.394531 361.492188 480.796875 358.957031 C 475.644531 350.714844 471.582031 341.96875 468.605469 332.71875 C 465.628906 323.46875 463.828125 313.992188 463.207031 304.296875 L 463.207031 283.539062 C 463.207031 282.9375 463.148438 282.339844 463.03125 281.746094 C 462.914062 281.15625 462.738281 280.582031 462.507812 280.023438 C 462.277344 279.464844 461.996094 278.9375 461.660156 278.433594 C 461.324219 277.933594 460.945312 277.46875 460.515625 277.042969 C 460.089844 276.617188 459.625 276.234375 459.125 275.898438 C 458.621094 275.566406 458.09375 275.28125 457.535156 275.050781 C 456.976562 274.820312 456.402344 274.644531 455.8125 274.527344 C 455.21875 274.410156 454.621094 274.351562 454.019531 274.351562 C 453.414062 274.351562 452.816406 274.410156 452.226562 274.527344 C 451.632812 274.644531 451.058594 274.820312 450.503906 275.050781 C 449.945312 275.28125 449.414062 275.566406 448.914062 275.898438 C 448.410156 276.234375 447.949219 276.617188 447.519531 277.042969 C 447.09375 277.46875 446.714844 277.933594 446.378906 278.433594 C 446.042969 278.9375 445.761719 279.464844 445.527344 280.023438 C 445.296875 280.582031 445.125 281.15625 445.007812 281.746094 C 444.886719 282.339844 444.828125 282.9375 444.828125 283.539062 L 444.828125 290.195312 C 445.042969 305.980469 442.613281 321.351562 437.542969 336.300781 C 436.847656 338.503906 436.070312 340.675781 435.207031 342.820312 C 434.347656 344.964844 433.40625 347.070312 432.382812 349.140625 C 431.359375 351.214844 430.261719 353.242188 429.085938 355.230469 C 427.910156 357.21875 426.65625 359.160156 425.332031 361.050781 C 424.007812 362.941406 422.613281 364.78125 421.148438 366.566406 C 419.683594 368.351562 418.152344 370.082031 416.554688 371.75 C 414.957031 373.417969 413.296875 375.023438 411.578125 376.566406 C 409.859375 378.109375 408.082031 379.582031 406.25 380.988281 C 404.417969 382.394531 402.535156 383.730469 400.601562 384.992188 C 398.667969 386.257812 396.6875 387.445312 394.664062 388.554688 C 392.636719 389.667969 390.574219 390.699219 388.472656 391.65625 C 386.367188 392.609375 384.230469 393.480469 382.058594 394.273438 C 379.890625 395.066406 377.691406 395.773438 375.46875 396.394531 C 373.246094 397.019531 371 397.558594 368.734375 398.007812 C 366.46875 398.460938 364.191406 398.824219 361.898438 399.105469 C 359.605469 399.382812 357.304688 399.574219 354.996094 399.675781 C 348.621094 400.3125 342.230469 400.628906 335.824219 400.625 L 325.84375 400.625 C 325.238281 400.535156 324.632812 400.507812 324.023438 400.539062 C 323.414062 400.570312 322.8125 400.664062 322.21875 400.816406 C 321.628906 400.964844 321.058594 401.175781 320.507812 401.441406 C 319.957031 401.707031 319.4375 402.023438 318.953125 402.390625 C 318.464844 402.761719 318.019531 403.175781 317.613281 403.632812 C 317.210938 404.089844 316.855469 404.582031 316.550781 405.109375 C 316.242188 405.640625 315.992188 406.191406 315.796875 406.769531 C 315.601562 407.351562 315.464844 407.941406 315.386719 408.546875 C 315.308594 409.160156 315.289062 409.777344 315.332031 410.390625 C 315.371094 411.007812 315.472656 411.617188 315.632812 412.214844 C 315.792969 412.808594 316.007812 413.386719 316.28125 413.941406 C 316.554688 414.496094 316.878906 415.019531 317.25 415.511719 C 317.625 416.003906 318.042969 416.453125 318.507812 416.863281 C 318.96875 417.273438 319.464844 417.636719 320 417.949219 C 320.53125 418.261719 321.089844 418.519531 321.675781 418.726562 C 322.257812 418.929688 322.855469 419.074219 323.464844 419.164062 L 336.933594 419.164062 C 345.242188 418.84375 353.484375 419.429688 361.664062 420.925781 C 369.84375 422.421875 377.757812 424.792969 385.414062 428.035156 C 391.246094 430.910156 396.84375 434.183594 402.210938 437.859375 L 404.429688 439.917969 C 406.578125 441.566406 409.007812 442.464844 411.714844 442.613281 C 412.304688 442.605469 412.886719 442.523438 413.453125 442.371094 C 414.023438 442.21875 414.5625 441.996094 415.078125 441.703125 C 415.589844 441.414062 416.058594 441.0625 416.480469 440.652344 C 416.90625 440.242188 417.269531 439.785156 417.578125 439.285156 C 418.285156 438.421875 418.765625 437.449219 419.015625 436.363281 C 419.265625 435.277344 419.261719 434.191406 419.003906 433.105469 C 418.636719 431.742188 418.011719 430.507812 417.132812 429.40625 C 416.25 428.304688 415.183594 427.425781 413.933594 426.769531 C 406.964844 422.648438 398.089844 417.101562 388.425781 412.191406 C 386.378906 411.183594 384.265625 410.335938 382.089844 409.65625 C 386.296875 408.332031 390.402344 406.753906 394.414062 404.917969 C 398.425781 403.085938 402.304688 401.007812 406.058594 398.691406 C 409.808594 396.371094 413.402344 393.832031 416.835938 391.066406 C 420.273438 388.300781 423.523438 385.332031 426.589844 382.164062 C 429.65625 378.996094 432.515625 375.648438 435.164062 372.121094 C 437.8125 368.597656 440.234375 364.921875 442.425781 361.09375 C 444.617188 357.265625 446.566406 353.320312 448.265625 349.25 C 449.96875 345.183594 451.410156 341.023438 452.59375 336.777344 C 453.742188 341.042969 455.152344 345.222656 456.824219 349.316406 C 458.492188 353.410156 460.410156 357.382812 462.574219 361.238281 C 464.738281 365.089844 467.132812 368.796875 469.757812 372.351562 C 472.382812 375.910156 475.21875 379.289062 478.265625 382.492188 C 481.308594 385.699219 484.542969 388.699219 487.960938 391.503906 C 491.378906 394.304688 494.957031 396.882812 498.699219 399.242188 C 502.4375 401.597656 506.308594 403.714844 510.3125 405.589844 C 514.316406 407.464844 518.417969 409.082031 522.621094 410.449219 C 518.40625 411.804688 514.292969 413.417969 510.277344 415.289062 C 506.265625 417.160156 502.382812 419.277344 498.636719 421.632812 C 494.886719 423.992188 491.300781 426.574219 487.875 429.382812 C 484.453125 432.1875 481.214844 435.199219 478.167969 438.410156 C 475.121094 441.625 472.285156 445.015625 469.664062 448.582031 C 467.039062 452.152344 464.652344 455.871094 462.496094 459.738281 C 460.339844 463.605469 458.433594 467.59375 456.773438 471.699219 C 455.117188 475.804688 453.722656 480 452.59375 484.28125 C 451.324219 480.320312 449.898438 476.515625 448.316406 472.714844 C 445.148438 465.902344 441.503906 459.246094 437.859375 452.910156 L 436.75 449.742188 C 436.480469 449.261719 436.164062 448.816406 435.804688 448.402344 C 435.441406 447.984375 435.046875 447.609375 434.609375 447.273438 C 434.175781 446.9375 433.710938 446.648438 433.21875 446.40625 C 432.722656 446.164062 432.210938 445.972656 431.679688 445.832031 C 431.148438 445.691406 430.609375 445.605469 430.058594 445.574219 C 429.511719 445.539062 428.964844 445.5625 428.421875 445.640625 C 427.875 445.71875 427.34375 445.847656 426.828125 446.03125 C 426.308594 446.214844 425.8125 446.449219 425.34375 446.730469 C 424.894531 447.019531 424.476562 447.351562 424.09375 447.722656 C 423.710938 448.09375 423.363281 448.496094 423.058594 448.933594 C 422.753906 449.371094 422.492188 449.835938 422.277344 450.324219 C 422.0625 450.8125 421.894531 451.316406 421.777344 451.839844 C 421.660156 452.359375 421.59375 452.886719 421.578125 453.417969 C 421.566406 453.953125 421.601562 454.484375 421.691406 455.011719 C 421.777344 455.535156 421.917969 456.050781 422.105469 456.550781 C 422.292969 457.050781 422.527344 457.527344 422.808594 457.980469 C 422.808594 457.980469 423.597656 459.40625 423.917969 460.199219 C 429.144531 468.085938 433.324219 476.496094 436.464844 485.425781 C 439.601562 494.355469 441.597656 503.53125 442.453125 512.957031 C 442.335938 518.574219 442.601562 524.171875 443.246094 529.753906 C 443.765625 532.550781 443.765625 535.351562 443.246094 538.148438 C 443.246094 538.734375 443.300781 539.316406 443.414062 539.890625 C 443.527344 540.46875 443.695312 541.027344 443.917969 541.570312 C 444.140625 542.113281 444.410156 542.628906 444.734375 543.117188 C 445.054688 543.609375 445.421875 544.0625 445.835938 544.480469 C 446.246094 544.898438 446.691406 545.273438 447.175781 545.605469 C 447.660156 545.933594 448.171875 546.214844 448.710938 546.449219 C 449.25 546.679688 449.804688 546.855469 450.378906 546.980469 C 450.953125 547.101562 451.53125 547.171875 452.117188 547.179688 C 452.699219 547.179688 453.273438 547.125 453.839844 547.015625 C 454.410156 546.90625 454.964844 546.742188 455.503906 546.523438 C 456.039062 546.308594 456.550781 546.042969 457.039062 545.726562 C 457.523438 545.410156 457.976562 545.050781 458.394531 544.648438 C 458.8125 544.246094 459.1875 543.808594 459.519531 543.332031 C 459.851562 542.855469 460.136719 542.355469 460.371094 541.824219 C 460.609375 541.296875 460.792969 540.75 460.921875 540.183594 C 461.054688 539.617188 461.128906 539.046875 461.148438 538.464844 L 461.148438 531.8125 C 460.925781 523.503906 461.429688 515.238281 462.652344 507.015625 C 463.875 498.792969 465.804688 490.738281 468.4375 482.855469 C 469.582031 479.429688 470.929688 476.085938 472.480469 472.824219 C 474.03125 469.5625 475.769531 466.402344 477.703125 463.351562 C 479.632812 460.300781 481.742188 457.375 484.027344 454.578125 C 486.3125 451.78125 488.757812 449.128906 491.363281 446.628906 C 493.96875 444.125 496.714844 441.789062 499.601562 439.621094 C 502.488281 437.449219 505.496094 435.460938 508.625 433.65625 C 511.75 431.847656 514.976562 430.234375 518.296875 428.820312 C 521.621094 427.402344 525.015625 426.191406 528.484375 425.183594 C 541.054688 421.871094 553.835938 420.445312 566.828125 420.90625 L 576.015625 420.90625 C 577.105469 420.988281 578.183594 420.925781 579.257812 420.71875 C 580.328125 420.507812 581.351562 420.160156 582.328125 419.671875 C 583.308594 419.183594 584.199219 418.570312 585.011719 417.839844 C 585.824219 417.109375 586.519531 416.28125 587.105469 415.359375 L 587.105469 409.65625 Z M 588.691406 407.121094" fill="#000000"></path><path fill-rule="nonzero" fill-opacity="1" d="M 294.15625 375.117188 L 294.15625 373.375 C 293.960938 371.261719 293.960938 369.148438 294.15625 367.035156 C 295.265625 361.808594 296.847656 356.738281 298.433594 351.191406 C 298.664062 350.664062 298.84375 350.121094 298.96875 349.558594 C 299.097656 348.996094 299.171875 348.429688 299.1875 347.855469 C 299.207031 347.277344 299.171875 346.707031 299.078125 346.136719 C 298.988281 345.570312 298.84375 345.015625 298.644531 344.472656 C 298.449219 343.933594 298.203125 343.414062 297.90625 342.921875 C 297.609375 342.425781 297.269531 341.964844 296.882812 341.539062 C 296.5 341.109375 296.078125 340.722656 295.617188 340.371094 C 295.160156 340.023438 294.671875 339.722656 294.15625 339.46875 C 293.046875 339.308594 291.9375 339.308594 290.828125 339.46875 C 289.5625 339.542969 288.375 339.882812 287.265625 340.496094 C 286.15625 341.105469 285.230469 341.925781 284.492188 342.953125 C 282.425781 338.8125 279.847656 335.019531 276.757812 331.578125 C 273.664062 328.136719 270.167969 325.167969 266.269531 322.675781 C 270.171875 320.375 273.691406 317.601562 276.839844 314.347656 C 279.984375 311.09375 282.640625 307.476562 284.808594 303.503906 C 286.9375 307.652344 289.59375 311.4375 292.765625 314.855469 C 295.941406 318.273438 299.519531 321.195312 303.503906 323.625 C 303.128906 323.902344 302.78125 324.207031 302.457031 324.546875 C 302.136719 324.886719 301.851562 325.25 301.597656 325.640625 C 301.339844 326.03125 301.125 326.441406 300.941406 326.871094 C 300.761719 327.300781 300.621094 327.742188 300.519531 328.199219 C 300.417969 328.65625 300.359375 329.113281 300.339844 329.582031 C 300.320312 330.046875 300.34375 330.511719 300.410156 330.972656 C 300.476562 331.433594 300.582031 331.886719 300.730469 332.328125 C 300.875 332.773438 301.0625 333.199219 301.285156 333.605469 C 301.625 334.246094 302.042969 334.832031 302.535156 335.363281 C 303.027344 335.894531 303.578125 336.351562 304.1875 336.742188 C 304.796875 337.128906 305.449219 337.433594 306.136719 337.65625 C 306.828125 337.875 307.535156 338.003906 308.257812 338.042969 C 309.625 338.015625 310.890625 337.644531 312.058594 336.933594 C 316.164062 334.96875 320.433594 333.488281 324.875 332.5 C 329.316406 331.511719 333.808594 331.035156 338.359375 331.070312 C 339.601562 331.152344 340.800781 330.972656 341.964844 330.53125 C 343.125 330.085938 344.140625 329.421875 345.015625 328.535156 C 345.78125 327.691406 346.367188 326.734375 346.777344 325.667969 C 347.1875 324.601562 347.390625 323.5 347.390625 322.359375 C 347.359375 321.789062 347.277344 321.226562 347.136719 320.675781 C 347 320.121094 346.808594 319.585938 346.566406 319.070312 C 346.324219 318.554688 346.039062 318.066406 345.703125 317.605469 C 345.367188 317.144531 344.988281 316.722656 344.574219 316.332031 C 344.15625 315.945312 343.703125 315.601562 343.222656 315.300781 C 342.738281 315 342.230469 314.746094 341.695312 314.542969 C 341.164062 314.339844 340.617188 314.1875 340.054688 314.089844 C 339.496094 313.992188 338.929688 313.949219 338.359375 313.960938 L 330.28125 313.960938 C 328.832031 313.945312 327.394531 313.847656 325.960938 313.65625 C 324.523438 313.46875 323.109375 313.195312 321.707031 312.832031 C 320.308594 312.472656 318.933594 312.027344 317.585938 311.496094 C 316.242188 310.96875 314.929688 310.363281 313.660156 309.671875 C 312.386719 308.984375 311.160156 308.222656 309.980469 307.386719 C 308.800781 306.550781 307.675781 305.644531 306.609375 304.671875 C 305.539062 303.695312 304.53125 302.660156 303.589844 301.566406 C 302.644531 300.46875 301.773438 299.320312 300.96875 298.117188 C 298.449219 293.746094 296.609375 289.105469 295.449219 284.199219 C 294.289062 279.289062 293.859375 274.316406 294.15625 269.28125 C 294.199219 268.699219 294.183594 268.117188 294.113281 267.535156 C 294.039062 266.957031 293.914062 266.390625 293.730469 265.835938 C 293.546875 265.28125 293.308594 264.75 293.019531 264.238281 C 292.730469 263.730469 292.394531 263.257812 292.011719 262.816406 C 291.628906 262.375 291.207031 261.972656 290.746094 261.617188 C 290.285156 261.257812 289.792969 260.949219 289.269531 260.6875 C 288.746094 260.425781 288.203125 260.21875 287.636719 260.066406 C 287.074219 259.910156 286.5 259.816406 285.917969 259.773438 C 280.847656 259.773438 277.679688 263.261719 277.363281 269.121094 L 277.363281 271.65625 C 277.519531 274.667969 277.519531 277.679688 277.363281 280.6875 C 277.230469 282.503906 276.957031 284.296875 276.542969 286.066406 C 276.125 287.835938 275.570312 289.5625 274.878906 291.246094 C 274.1875 292.925781 273.367188 294.542969 272.417969 296.09375 C 271.46875 297.644531 270.402344 299.113281 269.21875 300.492188 C 268.035156 301.875 266.753906 303.15625 265.363281 304.332031 C 263.976562 305.507812 262.507812 306.566406 260.949219 307.507812 C 259.394531 308.449219 257.773438 309.261719 256.089844 309.945312 C 254.402344 310.628906 252.675781 311.175781 250.902344 311.582031 C 246.015625 312.828125 241.050781 313.511719 236.007812 313.644531 L 230.78125 313.644531 C 230.199219 313.613281 229.617188 313.636719 229.039062 313.71875 C 228.460938 313.800781 227.898438 313.941406 227.347656 314.132812 C 226.796875 314.328125 226.269531 314.574219 225.769531 314.871094 C 225.265625 315.167969 224.796875 315.511719 224.363281 315.902344 C 223.929688 316.292969 223.539062 316.722656 223.1875 317.1875 C 222.839844 317.65625 222.539062 318.152344 222.285156 318.679688 C 222.035156 319.207031 221.835938 319.753906 221.695312 320.316406 C 221.550781 320.882812 221.464844 321.457031 221.433594 322.039062 C 221.355469 322.570312 221.355469 323.097656 221.433594 323.625 C 221.421875 324.171875 221.464844 324.714844 221.5625 325.253906 C 221.660156 325.792969 221.8125 326.316406 222.015625 326.828125 C 222.214844 327.335938 222.46875 327.820312 222.765625 328.277344 C 223.066406 328.738281 223.40625 329.164062 223.789062 329.554688 C 224.171875 329.945312 224.589844 330.292969 225.042969 330.601562 C 225.496094 330.910156 225.976562 331.167969 226.480469 331.378906 C 226.988281 331.59375 227.507812 331.753906 228.042969 331.859375 C 228.582031 331.96875 229.125 332.023438 229.671875 332.023438 L 242.503906 332.023438 C 244.054688 332.09375 245.59375 332.273438 247.121094 332.558594 C 248.648438 332.84375 250.144531 333.234375 251.617188 333.726562 C 253.089844 334.222656 254.523438 334.816406 255.910156 335.507812 C 257.300781 336.199219 258.636719 336.984375 259.917969 337.859375 C 261.199219 338.738281 262.414062 339.699219 263.5625 340.746094 C 264.710938 341.792969 265.78125 342.910156 266.773438 344.105469 C 267.765625 345.300781 268.667969 346.554688 269.488281 347.875 C 270.304688 349.195312 271.03125 350.566406 271.65625 351.984375 C 274.800781 359.265625 276.28125 366.871094 276.09375 374.800781 C 276.09375 384.941406 282.75 385.734375 284.808594 385.734375 C 286.867188 385.734375 293.207031 384.78125 294.15625 375.117188 Z M 294.15625 375.117188" fill="#000000"></path><path fill-rule="nonzero" fill-opacity="1" d="M 400.152344 504.402344 L 396.191406 504.402344 C 392.160156 504.625 388.199219 504.203125 384.308594 503.136719 C 381.726562 502.652344 379.242188 501.859375 376.859375 500.757812 L 373.375 500.125 L 369.730469 500.125 C 368.902344 500.082031 368.085938 500.171875 367.289062 500.394531 C 366.488281 500.613281 365.742188 500.953125 365.050781 501.410156 C 364.359375 501.871094 363.757812 502.425781 363.246094 503.078125 C 362.734375 503.730469 362.335938 504.445312 362.050781 505.226562 C 361.769531 506.003906 361.613281 506.808594 361.589844 507.636719 C 361.5625 508.46875 361.667969 509.28125 361.902344 510.074219 C 362.136719 510.871094 362.488281 511.609375 362.960938 512.292969 C 363.433594 512.976562 364 513.566406 364.660156 514.066406 C 360.847656 516.191406 357.359375 518.757812 354.195312 521.761719 C 351.03125 524.765625 348.285156 528.117188 345.964844 531.8125 C 343.777344 527.875 341.113281 524.292969 337.96875 521.066406 C 334.824219 517.839844 331.308594 515.085938 327.425781 512.800781 C 331.402344 510.492188 334.964844 507.664062 338.121094 504.320312 C 341.277344 500.976562 343.890625 497.253906 345.964844 493.152344 C 346.324219 493.710938 346.742188 494.214844 347.230469 494.667969 C 347.714844 495.121094 348.246094 495.503906 348.828125 495.824219 C 349.410156 496.140625 350.019531 496.382812 350.664062 496.546875 C 351.304688 496.714844 351.957031 496.796875 352.621094 496.796875 C 353.726562 497.125 354.835938 497.125 355.945312 496.796875 C 356.90625 496.410156 357.742188 495.84375 358.460938 495.097656 C 359.179688 494.351562 359.714844 493.492188 360.066406 492.519531 C 360.542969 491.296875 360.78125 490.03125 360.78125 488.71875 C 360.78125 487.40625 360.542969 486.136719 360.066406 484.914062 C 358.242188 480.863281 356.902344 476.65625 356.046875 472.292969 C 355.191406 467.933594 354.839844 463.53125 354.996094 459.089844 C 355.0625 458.546875 355.070312 458 355.027344 457.457031 C 354.980469 456.910156 354.882812 456.375 354.730469 455.851562 C 354.574219 455.324219 354.371094 454.820312 354.113281 454.335938 C 353.859375 453.851562 353.554688 453.398438 353.207031 452.976562 C 352.859375 452.554688 352.472656 452.171875 352.046875 451.828125 C 351.621094 451.484375 351.164062 451.1875 350.679688 450.9375 C 350.191406 450.6875 349.683594 450.488281 349.160156 450.339844 C 348.632812 450.191406 348.09375 450.097656 347.550781 450.058594 L 346.597656 450.058594 C 346.027344 450.070312 345.460938 450.132812 344.902344 450.257812 C 344.34375 450.378906 343.800781 450.554688 343.277344 450.78125 C 342.75 451.011719 342.253906 451.289062 341.785156 451.613281 C 341.3125 451.941406 340.878906 452.308594 340.484375 452.722656 C 340.085938 453.132812 339.730469 453.582031 339.421875 454.0625 C 339.113281 454.542969 338.855469 455.050781 338.644531 455.582031 C 338.4375 456.117188 338.28125 456.664062 338.179688 457.226562 C 338.078125 457.789062 338.03125 458.359375 338.042969 458.929688 L 338.042969 461.464844 C 337.878906 465.464844 337.40625 469.425781 336.617188 473.347656 C 336.453125 475.039062 336.160156 476.707031 335.738281 478.351562 C 335.316406 480 334.773438 481.601562 334.105469 483.164062 C 333.4375 484.726562 332.65625 486.230469 331.761719 487.671875 C 330.863281 489.117188 329.863281 490.480469 328.753906 491.769531 C 327.648438 493.0625 326.453125 494.257812 325.160156 495.363281 C 323.871094 496.46875 322.507812 497.472656 321.0625 498.367188 C 319.621094 499.265625 318.117188 500.046875 316.554688 500.710938 C 314.992188 501.378906 313.386719 501.921875 311.742188 502.34375 C 306.992188 503.394531 302.1875 503.972656 297.324219 504.085938 L 291.9375 504.085938 C 291.359375 504.027344 290.785156 504.03125 290.210938 504.097656 C 289.632812 504.164062 289.074219 504.292969 288.523438 504.480469 C 287.976562 504.667969 287.453125 504.910156 286.957031 505.210938 C 286.460938 505.511719 286.003906 505.859375 285.582031 506.257812 C 285.164062 506.65625 284.789062 507.09375 284.460938 507.574219 C 284.136719 508.050781 283.863281 508.558594 283.648438 509.097656 C 283.429688 509.632812 283.273438 510.1875 283.175781 510.757812 C 283.074219 511.328125 283.039062 511.902344 283.066406 512.484375 C 283.03125 513.019531 283.050781 513.550781 283.125 514.082031 C 283.195312 514.613281 283.316406 515.132812 283.492188 515.640625 C 283.664062 516.144531 283.882812 516.632812 284.152344 517.097656 C 284.417969 517.5625 284.730469 517.996094 285.082031 518.398438 C 285.433594 518.800781 285.820312 519.167969 286.246094 519.496094 C 286.667969 519.824219 287.121094 520.109375 287.601562 520.347656 C 288.078125 520.589844 288.578125 520.78125 289.09375 520.921875 C 289.609375 521.066406 290.136719 521.15625 290.671875 521.195312 L 295.582031 521.195312 C 298.75 521.195312 301.917969 521.195312 305.089844 521.195312 C 306.542969 521.332031 307.980469 521.5625 309.402344 521.890625 C 310.824219 522.214844 312.222656 522.628906 313.589844 523.136719 C 314.960938 523.644531 316.289062 524.242188 317.578125 524.921875 C 318.871094 525.605469 320.109375 526.367188 321.300781 527.214844 C 322.492188 528.058594 323.621094 528.976562 324.691406 529.96875 C 325.761719 530.960938 326.765625 532.019531 327.695312 533.144531 C 328.628906 534.265625 329.480469 535.445312 330.257812 536.683594 C 331.035156 537.917969 331.730469 539.199219 332.339844 540.527344 C 334.117188 544.539062 335.433594 548.695312 336.289062 553 C 337.144531 557.300781 337.519531 561.648438 337.410156 566.035156 C 337.375 566.570312 337.394531 567.101562 337.46875 567.632812 C 337.539062 568.164062 337.660156 568.683594 337.835938 569.191406 C 338.007812 569.699219 338.226562 570.183594 338.496094 570.648438 C 338.761719 571.113281 339.074219 571.546875 339.425781 571.949219 C 339.777344 572.355469 340.164062 572.71875 340.589844 573.046875 C 341.011719 573.375 341.464844 573.660156 341.945312 573.898438 C 342.421875 574.140625 342.921875 574.332031 343.4375 574.472656 C 343.953125 574.617188 344.480469 574.707031 345.015625 574.75 C 345.554688 574.757812 346.09375 574.714844 346.625 574.621094 C 347.15625 574.527344 347.675781 574.378906 348.179688 574.183594 C 348.683594 573.984375 349.164062 573.742188 349.617188 573.449219 C 350.074219 573.15625 350.496094 572.824219 350.886719 572.449219 C 351.277344 572.074219 351.625 571.664062 351.933594 571.21875 C 352.246094 570.773438 352.507812 570.304688 352.722656 569.808594 C 352.941406 569.3125 353.105469 568.800781 353.222656 568.273438 C 353.339844 567.742188 353.402344 567.210938 353.410156 566.667969 L 353.410156 563.5 C 353.546875 559.832031 353.914062 556.1875 354.519531 552.566406 C 354.707031 550.878906 355.019531 549.21875 355.460938 547.578125 C 355.902344 545.941406 356.464844 544.34375 357.148438 542.789062 C 357.832031 541.238281 358.632812 539.746094 359.546875 538.316406 C 360.457031 536.886719 361.476562 535.53125 362.59375 534.257812 C 363.714844 532.980469 364.925781 531.800781 366.226562 530.710938 C 367.527344 529.621094 368.902344 528.636719 370.355469 527.757812 C 371.808594 526.878906 373.316406 526.113281 374.886719 525.464844 C 376.453125 524.816406 378.0625 524.292969 379.710938 523.890625 C 384.652344 522.648438 389.671875 521.960938 394.761719 521.832031 L 399.992188 521.832031 C 400.585938 521.878906 401.179688 521.863281 401.769531 521.78125 C 402.363281 521.699219 402.9375 521.554688 403.496094 521.351562 C 404.058594 521.144531 404.589844 520.878906 405.089844 520.558594 C 405.59375 520.238281 406.054688 519.867188 406.476562 519.445312 C 406.898438 519.023438 407.269531 518.558594 407.59375 518.058594 C 407.914062 517.554688 408.179688 517.023438 408.382812 516.464844 C 408.589844 515.902344 408.734375 515.328125 408.816406 514.738281 C 408.894531 514.144531 408.914062 513.550781 408.863281 512.957031 C 408.835938 512.398438 408.753906 511.847656 408.621094 511.300781 C 408.492188 510.757812 408.308594 510.230469 408.078125 509.71875 C 407.847656 509.207031 407.574219 508.722656 407.253906 508.261719 C 406.933594 507.800781 406.574219 507.375 406.171875 506.984375 C 405.773438 506.589844 405.339844 506.238281 404.875 505.925781 C 404.410156 505.613281 403.917969 505.347656 403.402344 505.128906 C 402.890625 504.90625 402.359375 504.734375 401.8125 504.613281 C 401.265625 504.492188 400.710938 504.421875 400.152344 504.402344 Z M 400.152344 504.402344" fill="#000000"></path></svg>