<svg xml:space="preserve" viewBox="0 0 1024 1024" height="1024px" width="1024px" y="0px" x="0px" xmlns:xlink="http://www.w3.org/1999/xlink" xmlns="http://www.w3.org/2000/svg" version="1.1">
<g display="none" id="BG">
</g>
<g id="gradient">
</g>
<g id="yellow">
	<g>
		<path d="M229.364,365.069c0-53.001,0-105.179,0-158.024c-2.251,0-4.308,0-6.364,0
			c-38.116,0.001-76.232,0.022-114.347-0.044c-2.595-0.004-5.352-0.219-7.748-1.108c-4.683-1.737-7.288-6.67-6.642-11.476
			c0.697-5.192,4.521-9.085,9.693-9.688c1.919-0.224,3.875-0.176,5.815-0.176c37.763-0.012,75.526-0.012,113.289-0.015
			c1.906,0,3.811,0,6.508,0c0-4.981-0.131-9.499,0.026-14.006c0.369-10.559-0.44-21.373,1.581-31.62
			c5.432-27.539,28.413-44.852,57.986-44.88c64.232-0.06,128.464-0.02,192.697-0.02c84.349,0,168.698-0.018,253.047,0.011
			c27.745,0.01,49.561,15.38,56.855,40.345c1.564,5.352,2.402,11.075,2.54,16.653c0.353,14.285,0.198,28.584,0.096,42.877
			c-0.058,8.085-4.618,13.151-11.422,13.107c-6.8-0.044-11.229-5.105-11.281-13.246c-0.091-14.293,0.132-28.589-0.081-42.879
			c-0.295-19.812-14.397-33.949-34.252-34.035c-39.88-0.173-79.761-0.058-119.641-0.048c-1.189,0-2.377,0.156-4.081,0.275
			c0,2.34,0,4.411,0,6.482c-0.005,43.057,0.164,86.115-0.097,129.17c-0.107,17.703-8.288,31.309-24.093,39.373
			c-15.812,8.067-31.764,7.45-46.606-2.73c-4.266-2.926-7.96-6.996-11.138-11.139c-10.975-14.31-28.335-14.466-39.265-0.061
			c-12.668,16.695-32.15,23.11-51.109,16.83c-19.043-6.308-30.954-23.358-30.971-44.534c-0.035-42.351-0.011-84.702-0.011-127.053
			c0-1.923,0-3.847,0-6.626c-2.117,0-3.961,0-5.804,0c-38.469,0.003-76.938-0.022-115.406,0.018
			c-23.186,0.024-36.778,13.623-36.786,36.86c-0.031,88.408-0.035,176.815-0.007,265.223c0.007,22.662,13.992,36.683,36.613,36.687
			c148.758,0.025,297.515,0.025,446.273,0.001c22.293-0.004,36.393-14.085,36.41-36.353c0.046-57.88,0.012-115.759,0.043-173.639
			c0.001-2.454,0.049-4.973,0.58-7.348c1.141-5.106,5.634-8.551,10.7-8.593c5.055-0.042,9.592,3.373,10.827,8.44
			c0.494,2.027,0.617,4.186,0.619,6.285c0.029,58.233,0.087,116.465-0.008,174.697c-0.047,28.748-17.176,51.205-43.762,57.429
			c-4.755,1.113-9.775,1.535-14.673,1.538c-149.463,0.08-298.927,0.098-448.39,0.046c-33.215-0.011-57.553-24.401-57.986-57.87
			c-0.137-10.549-0.021-21.101-0.021-32.372c-2.531,0-4.581,0-6.63,0c-37.76,0-75.52,0.003-113.28-0.003
			c-9.97-0.002-15.368-3.909-15.524-11.198c-0.16-7.433,5.433-11.563,15.675-11.564c37.586-0.002,75.173,0,112.759,0
			C224.658,365.069,226.745,365.069,229.364,365.069z M433.435,117.055c-0.299,1.027-0.48,1.357-0.48,1.687
			c-0.029,44.433-0.136,88.866,0.091,133.297c0.021,4.016,1.443,8.472,3.51,11.953c8.171,13.76,26.952,14.539,37.022,1.558
			c8.161-10.52,18.353-17.53,31.589-19.316c18.564-2.505,33.448,4.236,44.904,18.927c6.679,8.565,16.254,11.594,25.775,8.304
			c9.653-3.335,15.258-11.79,15.272-23.567c0.054-42.847,0.025-85.694,0.006-128.541c-0.001-1.362-0.229-2.724-0.372-4.302
			C538.147,117.055,485.848,117.055,433.435,117.055z" fill="#DFAC50"></path>
		<path d="M794.429,636.118c2.78,0,4.858,0,6.937,0c37.229-0.002,74.458-0.004,111.687-0.008
			c11.302-0.001,16.895,3.831,16.791,11.509c-0.102,7.53-5.55,11.263-16.513,11.265c-37.229,0.007-74.458,0.002-111.687,0.002
			c-2.104,0-4.208,0-6.763,0c0,52.585,0,104.884,0,158.019c1.832,0,3.863,0,5.893,0c37.582,0,75.164,0.001,112.745,0.002
			c1.588,0,3.179-0.05,4.763,0.024c6.766,0.317,11.598,5.056,11.578,11.309c-0.019,6.222-4.841,11.054-11.69,11.097
			c-20.996,0.131-41.992,0.068-62.989,0.073c-18.173,0.004-36.347-0.003-54.52-0.005c-1.893,0-3.786,0-6.235,0
			c0,11.023,0.003,21.393-0.001,31.763c-0.004,12.678-3.035,24.478-10.578,34.824c-11.507,15.782-27.263,23.709-46.657,23.869
			c-29.287,0.242-58.578,0.113-87.867,0.036c-7.991-0.021-13.17-4.75-13.082-11.479c0.088-6.747,5.214-11.077,13.329-11.245
			c1.411-0.029,2.823-0.006,4.234-0.006c27.701-0.002,55.403,0.091,83.103-0.039c17.125-0.08,30.17-10.245,33.875-26.284
			c0.783-3.388,0.844-6.996,0.846-10.503c0.043-88.395,0.044-176.79,0.025-265.186c-0.005-22.916-13.967-36.788-37.04-36.791
			c-117.686-0.017-235.371-0.007-353.057-0.011c-1.94,0-3.889,0.05-5.818-0.109c-6.08-0.505-10.58-5.295-10.559-11.13
			c0.02-5.647,4.282-10.405,10.071-11.14c1.392-0.177,2.818-0.112,4.229-0.112c118.744-0.004,237.488-0.023,356.233,0.009
			c28.908,0.008,51.696,17.785,57.303,45.088c1.333,6.491,1.185,13.322,1.362,20.005
			C794.593,619.056,794.429,627.159,794.429,636.118z" fill="#DFAC50"></path>
		<path d="M396.829,907.159c67.049,0.002,134.098,0.002,201.147,0.002c10.271,0,15.761,4.067,15.623,11.575
			c-0.135,7.329-5.453,11.198-15.483,11.199c-133.216,0.003-266.432,0.024-399.648-0.019c-34.926-0.011-59.145-24.378-59.154-59.357
			c-0.023-88.399-0.031-176.798-0.003-265.197c0.011-35.381,24.089-59.47,59.439-59.502c43.053-0.038,86.105-0.012,129.158-0.002
			c1.762,0,3.558-0.087,5.278,0.213c5.679,0.99,9.697,6.123,9.353,11.728c-0.337,5.483-4.536,9.929-10.142,10.394
			c-3.332,0.277-6.699,0.165-10.05,0.166c-41.465,0.009-82.929-0.04-124.394,0.031c-17.335,0.03-30.427,9.368-34.647,24.759
			c-1.011,3.689-1.426,7.652-1.429,11.489c-0.08,88.928-0.104,177.855-0.039,266.783c0.016,21.541,14.312,35.695,35.963,35.715
			C264.142,907.196,330.485,907.157,396.829,907.159z" fill="#DFAC50"></path>
		<path d="M455.617,839.404c-2.719,0-4.78,0-6.841,0c-23.82-0.004-47.641-0.024-71.461,0.003
			c-4.837,0.005-8.609-1.791-10.838-6.171c-2.01-3.95-1.684-7.909,0.834-11.516c2.669-3.825,6.601-4.86,11.114-4.849
			c27.349,0.068,54.699,0.032,82.048,0.031c16.586,0,33.172,0.037,49.758-0.006c20.473-0.053,35.66-14.554,35.628-33.942
			c-0.032-19.361-15.238-33.773-35.758-33.803c-29.996-0.045-59.995,0.238-89.987-0.132c-27.29-0.337-50.957-21.641-54.25-48.054
			c-4.411-35.374,20.634-64.095,56.653-64.811c10.742-0.213,21.491-0.033,33.1-0.033c0-6.467-0.003-12.562,0.001-18.656
			c0.003-4.94-0.113-9.885,0.053-14.82c0.236-7.002,4.71-11.474,11.196-11.461c6.378,0.013,11.098,4.662,11.2,11.54
			c0.162,10.902,0.043,21.808,0.043,33.392c2.479,0,4.527,0,6.574,0c23.291-0.002,46.582-0.032,69.873,0.009
			c8.227,0.014,13.116,3.732,13.686,10.174c0.529,5.975-2.831,10.809-8.701,12.054c-2.383,0.505-4.901,0.513-7.357,0.514
			c-43.406,0.031-86.813-0.16-130.218,0.101c-25.869,0.155-42.114,26.375-30.507,48.918c6.721,13.054,18.043,18.759,32.493,18.756
			c28.937-0.005,57.876-0.133,86.812,0.044c27.319,0.167,48.841,16.452,55.706,41.738c9.45,34.809-16.028,69.578-52.102,70.801
			c-11.787,0.4-23.598,0.063-36.252,0.063c0,3.691,0.002,6.955,0,10.219c-0.006,7.94,0.147,15.885-0.069,23.819
			c-0.183,6.694-5.27,11.472-11.518,11.3c-6.08-0.168-10.694-4.793-10.832-11.379c-0.192-9.17-0.069-18.348-0.08-27.522
			C455.616,843.84,455.617,841.955,455.617,839.404z" fill="#DFAC50"></path>
		<path d="M376.518,387.838c-28.03,0.004-56.059,0.004-84.089,0.004c-1.41,0-2.821,0.018-4.231-0.013
			c-8.185-0.177-13.214-4.41-13.328-11.201c-0.117-6.978,5.056-11.527,13.497-11.536c45.834-0.044,91.669-0.024,137.503-0.025
			c13.221,0,26.445-0.152,39.664,0.053c9.962,0.154,15.574,9.017,10.99,16.937c-2.729,4.715-7.193,5.797-12.216,5.792
			c-24.504-0.025-49.008-0.013-73.512-0.014C386.037,387.834,381.277,387.834,376.518,387.838z" fill="#DFAC50"></path>
		<path d="M105.17,297.309c-28.554,0.001-57.107,0.003-85.661-0.003c-1.762,0-3.533,0.041-5.284-0.115
			c-5.892-0.524-10.186-4.981-10.399-10.692c-0.218-5.831,4.124-10.859,10.108-11.582c1.566-0.189,3.168-0.104,4.754-0.105
			c57.989-0.005,115.978-0.028,173.966,0.059c2.906,0.004,6.126,0.346,8.646,1.624c4.489,2.276,6.351,6.491,5.548,11.547
			c-0.774,4.874-4.722,8.613-9.681,9.068c-3.324,0.305-6.69,0.19-10.037,0.191C159.81,297.313,132.49,297.308,105.17,297.309z" fill="#DFAC50"></path>
		<path d="M918.327,749.143c-29.083,0-58.166,0.018-87.249-0.035c-2.254-0.004-4.627-0.15-6.738-0.851
			c-4.937-1.639-7.866-6.542-7.329-11.572c0.563-5.27,4.665-9.356,10.06-9.898c1.748-0.176,3.521-0.138,5.282-0.138
			c57.461-0.006,114.922-0.007,172.384-0.003c10.14,0.001,15.341,3.739,15.443,11.057c0.104,7.443-5.368,11.44-15.661,11.44
			C975.788,749.143,947.057,749.143,918.327,749.143z" fill="#DFAC50"></path>
		<path d="M330.932,297.304c-14.286,0.001-28.571,0.045-42.857-0.016c-8.144-0.035-13.194-4.387-13.211-11.169
			c-0.018-6.779,5.14-11.288,13.144-11.297c28.924-0.032,57.848-0.037,86.772,0.004c7.945,0.011,13.128,4.701,12.969,11.491
			c-0.155,6.605-5.108,10.925-12.901,10.965C360.209,297.357,345.57,297.303,330.932,297.304z" fill="#DFAC50"></path>
		<path d="M681.456,604.228c-0.146-7.501,3.78-12.505,10.196-12.995c6.975-0.533,11.507,3.696,12.261,11.442
			c1.968,20.223,13.099,31.346,33.454,33.428c7.543,0.772,12.248,5.682,11.734,12.248c-0.488,6.242-5.572,10.528-12.393,10.447
			C707.232,658.448,682.025,633.553,681.456,604.228z" fill="#DFAC50"></path>
		<path d="M197.784,816.964c29.292,0.599,54.29,25.997,54.477,55.349c0.043,6.761-4.337,11.858-10.568,12.298
			c-6.519,0.46-11.699-4.294-12.083-11.856c-0.586-11.538-5.071-21.139-14.868-27.077c-5.355-3.246-11.961-4.886-18.225-6.061
			c-7.881-1.477-12.162-5.13-11.855-12.043C184.959,820.891,190.011,816.805,197.784,816.964z" fill="#DFAC50"></path>
		<path d="M681.465,871.046c0.75-28.892,25.729-53.644,54.589-54.093c7.565-0.118,12.798,4.207,13.066,10.8
			c0.26,6.399-4.296,10.954-11.67,11.668c-19.861,1.921-31.584,13.465-33.491,32.984c-0.774,7.916-5.136,12.479-11.685,12.222
			C685.528,884.362,681.258,878.997,681.465,871.046z" fill="#DFAC50"></path>
		<path d="M196.964,658.789c-6.853,0.105-11.889-4.168-12.293-10.43c-0.418-6.486,3.651-11.106,10.557-12.172
			c4.148-0.64,8.508-0.852,12.351-2.342c13.166-5.106,20.482-14.928,21.855-29.059c0.102-1.051,0.093-2.117,0.247-3.159
			c1.014-6.871,5.782-10.892,12.283-10.393c6.254,0.479,10.42,5.527,10.266,12.439C251.565,633.599,226.765,658.332,196.964,658.789
			z" fill="#DFAC50"></path>
	</g>
</g>
</svg>
