<svg xml:space="preserve" viewBox="0 0 1024 1024" height="1024px" width="1024px" y="0px" x="0px" xmlns:xlink="http://www.w3.org/1999/xlink" xmlns="http://www.w3.org/2000/svg" version="1.1">
<g display="none" id="BG">
</g>
<g id="gradient">
</g>
<g id="yellow">
	<g>
		<path d="M760.254,213.615c0-19.647-0.017-38.554,0.016-57.46c0.006-3.41-0.112-6.868,0.392-10.219
			c1.246-8.299,7.622-13.859,15.337-13.128c8.134,0.77,13.655,5.387,13.73,13.704c0.314,34.462,0.397,68.931,0.018,103.391
			c-0.109,9.904-6.621,14.353-18.97,14.402c-28.562,0.113-57.125,0.047-85.688,0.029c-4.033-0.003-8.105,0.185-12.091-0.286
			c-9.08-1.071-14.445-7.122-14.121-15.421c0.32-8.21,6.115-13.859,15.414-13.978c19.52-0.248,39.046-0.075,58.57-0.075
			c0.958-1.117,1.916-2.234,2.874-3.35c-2.207-0.855-4.745-1.266-6.572-2.63c-73.4-54.768-155.712-80.152-247.039-71.953
			c-162.688,14.604-290.497,130.268-321.86,289.597c-31.389,159.46,53.664,324.126,202.18,391.429
			c175.345,79.461,377.689,9.966,466.991-160.611c25.753-49.191,38.668-101.818,39.96-157.313c0.022-0.931,0.02-1.863,0.039-2.794
			c0.25-12.378,5.895-19.334,15.427-19.008c9.225,0.315,14.562,7.169,14.359,19.049c-1.408,82.497-25.155,158.032-74.698,224.007
			C742.72,849.927,632.483,903.104,496.467,899.86c-177.049-4.222-333.184-139.221-364.915-313.47
			c-33.209-182.367,57.682-357.615,227.876-429.157c138.103-58.052,269.359-39.178,390.197,49.788
			c2.498,1.839,4.884,3.832,7.37,5.689C757.43,213.035,758.106,213.038,760.254,213.615z" fill="#DFAC50"></path>
		<path d="M329.551,567.861c10.109,0,20.217-0.018,30.326,0.009c4.029,0.011,8.087-0.156,12.082,0.247
			c8.557,0.863,13.852,6.615,13.846,14.601c-0.006,7.962-5.232,13.861-13.85,14.636c-6.464,0.581-13.01,0.3-19.519,0.308
			c-19.538,0.025-39.075-0.011-58.613,0.008c-7.328,0.007-13.642-1.926-16.607-9.372c-2.921-7.335-0.033-13.096,5.25-18.343
			c21.785-21.638,43.623-43.227,65.091-65.177c15.089-15.428,9.216-38.097-10.776-43.176c-13.97-3.549-27.464,5.296-30.425,19.942
			c-3.114,15.403-8.42,20.687-18.652,18.573c-9.807-2.026-13.254-10.096-10.646-24.927c3.747-21.31,21.143-38.712,42.669-42.686
			c24.437-4.511,47.159,5.452,58.922,25.838c11.397,19.751,9.684,45.279-5.557,62.545c-11.679,13.231-24.6,25.378-37.201,37.771
			c-2.379,2.34-5.851,3.567-8.819,5.308C327.898,565.265,328.724,566.563,329.551,567.861z" fill="#DFAC50"></path>
		<path d="M456.017,560.599c-15.729,0-30.249-0.103-44.766,0.042c-7.789,0.078-15.003-0.774-19.027-8.665
			c-3.669-7.195-0.261-13.033,3.612-18.917c20.095-30.524,40.153-61.074,60.08-91.707c4.548-6.991,9.825-12.505,18.88-9.944
			c9.434,2.669,11.195,10.175,11.113,19.029c-0.243,26.307-0.087,52.617-0.087,78.758c18.937,5.025,22.896,8.133,22.4,17.262
			c-0.503,9.267-5.816,12.991-22.411,14.906c0,6.448,0.134,13.117-0.031,19.778c-0.25,10.081-6.268,16.447-15.119,16.271
			c-8.412-0.167-14.164-6.396-14.605-15.976c-0.157-3.402-0.036-6.818-0.039-10.227
			C456.015,568.153,456.017,565.098,456.017,560.599z M455.467,496.577c-8.09,12.348-14.772,22.547-21.92,33.457
			c8.706,0,15.331,0,21.92,0C455.467,519.263,455.467,509.254,455.467,496.577z" fill="#DFAC50"></path>
		<path d="M701.625,460.597c-20.008,0-37.638,0.186-55.261-0.064c-12.389-0.176-19.701-10.144-15.324-20.451
			c2.721-6.407,7.858-9.287,14.742-9.285c28.554,0.011,57.122-0.435,85.651,0.41c5.061,0.15,12.416,4.611,14.251,8.963
			c1.844,4.373-0.026,12.825-3.462,16.514c-27.778,29.831-40.27,64.884-38.615,105.342c0.241,5.888,0.106,11.796,0.014,17.693
			c-0.172,10.959-5.784,17.613-14.794,17.69c-9.075,0.077-14.565-6.554-15.024-17.433C672.05,538.4,676.036,498.114,701.625,460.597
			z" fill="#DFAC50"></path>
		<path d="M534.054,634.199c-12.89-0.098-19.204-9.713-15.18-21.098c9.183-25.98,18.743-51.827,28.151-77.728
			c15.01-41.325,30.01-82.654,45.052-123.967c1.056-2.899,2.02-5.961,3.731-8.467c4.368-6.398,10.55-8.659,17.821-5.63
			c7.16,2.983,10.581,8.818,8.829,16.437c-1.449,6.298-4.04,12.344-6.262,18.452c-22.863,62.851-45.793,125.676-68.583,188.553
			C544.866,628.328,541.074,634.128,534.054,634.199z" fill="#DFAC50"></path>
	</g>
</g>
</svg>
