<svg xml:space="preserve" viewBox="0 0 1024 1024" height="1024px" width="1024px" y="0px" x="0px" xmlns:xlink="http://www.w3.org/1999/xlink" xmlns="http://www.w3.org/2000/svg" version="1.1">
<g display="none" id="BG">
</g>
<g id="gradient">
</g>
<g id="yellow">
	<g>
		<path d="M468.192,279.629c-80.498-0.001-160.996,0.004-241.493-0.007c-9.367-0.001-15.848-5.199-16.554-13.175
			c-0.831-9.383,5.804-16.409,15.826-16.434c27.666-0.071,55.332-0.029,82.998-0.029c132.663,0,265.326-0.105,397.989,0.091
			c26.965,0.04,52.08,8.502,76.284,19.669c43.451,20.047,80.06,49.426,112.87,83.812c46.74,48.983,82.933,105.307,114.596,164.811
			c4.836,9.088,7.228,18.132,7.049,28.512c-0.496,28.824-0.075,57.663-0.204,86.495c-0.11,24.517-10.112,43.772-31.264,56.698
			c-9.117,5.571-19.138,8.477-29.863,8.6c-9.998,0.114-20,0.182-29.997,0.026c-3.155-0.049-4.678,0.767-5.498,4.058
			c-9.19,36.891-32.47,59.615-69.621,67.386c-45.944,9.611-93.807-23.849-101.184-70.175c-7.877-49.469,22.783-93.3,72.146-101.515
			c45.322-7.542,87.71,21.421,98.344,65.97c0.861,3.609,2.084,4.936,5.86,4.824c9.158-0.272,18.332,0.021,27.496-0.119
			c19.662-0.301,33.918-14.606,33.998-34.33c0.124-30.665,0.064-61.33-0.019-91.995c-0.006-2.077-0.428-4.371-1.372-6.194
			c-29.302-56.57-63.209-110.04-106.622-157.015c-29.959-32.417-63.355-60.518-103.222-80.171
			c-25.829-12.733-52.7-20.281-82.051-20.017C619.192,280.082,543.69,279.63,468.192,279.629z M893.299,684.442
			c0.042-31.731-25.731-57.664-57.309-57.665c-31.803-0.002-57.909,26.174-57.748,57.901c0.16,31.487,25.875,57.224,57.232,57.282
			C867.634,742.018,893.257,716.531,893.299,684.442z" fill="#DFAC50"></path>
		<path d="M217.015,593.609c-2.529,0-4.472,0-6.415,0c-27.166,0-54.332,0.055-81.498-0.026
			c-12.042-0.036-19.578-10.875-14.695-21.073c2.987-6.238,8.29-8.613,15.086-8.6c36.166,0.072,72.332,0.031,108.498,0.03
			c16,0,31.999-0.015,47.999,0.012c9.967,0.017,16.679,5.865,16.806,14.56c0.13,8.849-6.751,15.055-16.865,15.092
			c-12.815,0.046-25.631,0.011-38.188,0.011c-0.475,0.54-0.874,0.781-0.874,1.023c-0.02,15.324-0.676,30.686,0.192,45.961
			c0.845,14.88,15.147,27.841,30.207,28.347c12.819,0.43,25.663,0.097,38.493,0.265c2.769,0.036,3.677-1.159,4.31-3.614
			c9.549-37.015,33.096-59.578,70.543-67.041c45.953-9.159,93.398,24.778,100.327,71.321c7.179,48.221-22.291,90.49-69.818,100.139
			c-44.84,9.104-90.804-20.689-100.783-65.593c-1.001-4.506-2.639-5.877-7.156-5.768c-11.992,0.288-24.001,0.266-35.995-0.018
			c-32.244-0.765-59.438-28.182-60.064-60.538c-0.248-12.828-0.086-25.665-0.11-38.498
			C217.012,597.808,217.015,596.017,217.015,593.609z M462.646,685.125c0.648-31.124-24.987-57.728-56.234-58.358
			c-31.753-0.64-58.105,24.546-58.774,56.174c-0.67,31.718,24.315,58.353,55.345,58.998
			C435.805,742.622,461.968,717.708,462.646,685.125z" fill="#DFAC50"></path>
		<path d="M195.06,485.719c56.477,0.006,112.953-0.007,169.43,0.042c2.962,0.003,6.084,0.035,8.853,0.923
			c6.612,2.119,10.308,8.642,9.491,15.766c-0.729,6.358-5.844,11.558-12.475,12.397c-2.795,0.354-5.648,0.345-8.475,0.345
			c-111.953,0.015-223.906,0.012-335.859,0.002c-1.996,0-4.007,0.007-5.987-0.209c-8.139-0.887-13.961-7.43-13.564-15.138
			c0.41-7.959,6.408-13.982,14.66-14.037c23.323-0.156,46.647-0.089,69.97-0.095C125.755,485.707,160.408,485.713,195.06,485.719z" fill="#DFAC50"></path>
		<path d="M295.461,436.769c-50.143-0.004-100.286,0.008-150.429-0.015c-9.949-0.004-16.215-5.929-16.067-15.022
			c0.113-6.898,4.556-12.453,11.328-13.908c2.096-0.45,4.287-0.636,6.435-0.637c99.619-0.029,199.239-0.032,298.858-0.015
			c11.13,0.002,17.767,5.824,17.58,15.247c-0.164,8.242-6.198,14.26-14.778,14.3c-22.156,0.103-44.312,0.051-66.468,0.053
			C353.1,436.776,324.281,436.773,295.461,436.769z" fill="#DFAC50"></path>
		<path d="M830.971,496.939c-18.987,0.005-37.975-0.112-56.962,0.03c-38.779,0.289-62.866-23.692-69.863-57.913
			c-1.257-6.15-1.936-12.522-1.981-18.798c-0.205-28.313-0.133-56.628-0.054-84.943c0.021-7.546,4.947-13.334,11.88-14.511
			c7.293-1.239,14.229,2.371,16.49,9.011c0.89,2.612,1.154,5.545,1.162,8.333c0.082,27.315-0.338,54.639,0.285,81.94
			c0.189,8.274,2.172,16.861,5.096,24.642c5.205,13.853,16.078,21.482,30.915,22.241c12.959,0.663,25.965,0.514,38.951,0.544
			c29.147,0.067,58.294-0.012,87.441,0.042c8.701,0.016,14.117,3.384,16.278,9.764c3.343,9.871-3.416,19.473-14.181,19.56
			C874.609,497.058,852.789,496.934,830.971,496.939z" fill="#DFAC50"></path>
		<path d="M230.518,358.611c-45.32-0.003-90.641,0.014-135.961-0.015c-11.18-0.007-18.534-8.38-16.21-18.285
			c1.628-6.937,7.599-11.325,15.661-11.33c38.822-0.027,77.644-0.019,116.466-0.019c52.152,0,104.303-0.017,156.455,0.022
			c12.237,0.009,19.785,11.254,14.437,21.492c-3.099,5.931-8.339,8.171-14.887,8.159c-29.658-0.057-59.316-0.022-88.974-0.02
			C261.842,358.615,246.18,358.614,230.518,358.611z" fill="#DFAC50"></path>
		<path d="M713.92,669.441c0,9.822,0,19.115,0,28.87c-62.47,0-124.807,0-187.523,0c0-9.52,0-19.05,0-28.87
			C588.872,669.441,651.088,669.441,713.92,669.441z" fill="#DFAC50"></path>
	</g>
</g>
</svg>
